<?xml version="1.0" encoding="UTF-8" standalone="no"?>
<!DOCTYPE svg PUBLIC "-//W3C//DTD SVG 1.1//EN"
"http://www.w3.org/Graphics/SVG/1.1/DTD/svg11.dtd">
<svg width="1284" height="973" version="1.1" xmlns="http://www.w3.org/2000/svg" xmlns:xlink="http://www.w3.org/1999/xlink"
style="display: block;margin-left: auto;margin-right: auto;">


<!-- Page 1 -->
<svg x="0" y="0" width="1284" height="909" version="1.1" xmlns="http://www.w3.org/2000/svg" xmlns:xlink="http://www.w3.org/1999/xlink"
style="display: block;margin-left: auto;margin-right: auto;">
<defs>
<clipPath id="c0_1"><path d="M73.5,258.5l0,-187l1181,0l0,187Z" /></clipPath>
<clipPath id="c1_1"><path d="M73.5,446.5l0,-188l1181,0l0,188Z" /></clipPath>
<clipPath id="c2_1"><path d="M73.5,633.5l0,-187l1181,0l0,187Z" /></clipPath>
<clipPath id="c3_1"><path d="M73.5,821.5l0,-188l1181,0l0,188Z" /></clipPath>

<style type="text/css"><![CDATA[

.g1_1{
fill: #FFFFFF;
}
.g2_1{
fill: none;
stroke: #000000;
stroke-width: 2;
stroke-linecap: round;
stroke-linejoin: round;
}

.s1_1{
font-size: 16.81px;
font-family: Helvetica, Arial, sans-serif;
fill: #000000;
}
.s3_1{
font-size: 29.03px;
font-weight: bold;
font-family: Helvetica, Arial, sans-serif;
fill: #000000;
}
.s2_1{
font-size: 24.44px;
font-family: Helvetica, Arial, sans-serif;
fill: #000000;
}

]]></style>

</defs>
<path d="M0,0
L0,909
L1284,909
L1284,0 Z " 
fill="#FFFFFF" stroke="none" />
<path d="M0,908l1285,0l0,-909L0,-1L0,908Z" class="g1_1" />
<g clip-path="url(#c0_1)">
<path d="M117,102l0,-1l0,-1l0,-1l1,-1l0,-1l0,-1l1,0l0,-1l0,-1l0,-1l1,0l0,-1l0,-1l0,-1l1,-1l0,-1l0,-1l1,-1l0,-1l1,-1l0,-1l1,0l0,-1l1,0l1,-1l0,-1l1,-1l0,-1l1,0l1,0l0,1l0,-1l0,1l1,0l1,-1l0,1l1,1l0,1l1,0l1,1l0,1l0,-1l0,1l1,0l0,1l1,1l0,1l0,1l1,0l0,1l0,1l0,1l1,0l0,1l0,1l1,1l0,1l0,1l0,1l1,0l0,1l0,1l0,1l0,1l1,0l0,1l0,1l0,1l1,1l0,1l0,1l0,1l0,1l1,0l0,1l0,1l0,1l1,1l0,1l0,1l1,1l0,1l0,1l1,1l0,1l0,1l1,1l0,1l0,1l1,1l0,1l0,1l1,0l0,1l0,1l0,1l1,0l0,1l0,1l0,1l1,0l0,1l0,1l0,1l1,1l0,1l0,1l1,1l0,1l0,1l0,1l1,1l0,1l0,1l0,1l0,1l1,1l0,1l0,1l0,2l0,1l1,1l0,1l0,1l0,1l0,2l1,1l0,1l0,1l0,1l0,2l1,1l0,1l0,1l0,1l0,1l1,1l0,1l0,2l0,1l0,1l1,0l0,1l0,1l0,1l0,1l1,1l0,1l0,1l0,1l1,1l0,1l0,1l0,1l1,0l0,1l0,1l1,0l0,1l0,1l1,0l0,1l1,1l0,1l1,0l0,-1l1,0l0,-1l1,-1l0,-1l0,-1l1,-1l0,-1l0,-1l1,-1l0,-1l0,-1l0,-2l1,-1l0,-1l0,-1l0,-1l0,-1l1,-1l0,-1l0,-1l0,-1l0,-1l1,-1l0,-1l0,-1l0,-1l1,-1l0,-1l0,-1l0,-1l1,-1l0,-1l0,-1l0,-1l0,-1l1,-1l0,-1l0,-1l0,-1l1,-1l0,-1l0,-1l0,-1l0,-1l1,-1l0,-1l0,-1l0,-1l0,-2l1,-1l0,-1l0,-1l0,-1l0,-1l1,-1l0,-1l0,-1l0,-1l0,-1l1,-1l0,-1l0,-1l0,-1l0,-1l1,-1l0,-1l0,-1l0,-1l0,-1l0,-1l1,-1l0,-1l0,-1l0,-1l0,-1l1,-1l0,-1l0,-1l1,-1l0,-2l0,-1l1,0l0,-1l0,-1l0,-1l1,-1l0,-1l0,-1l1,0l0,-1l0,3l0,-1l1,0l0,-1l0,-1l0,-1l1,0l0,-1l0,-1l0,-1l1,0l0,-1l0,-1l1,-1l0,-1l0,-1l1,0l0,-1l0,-1l0,-1l1,0l0,-1l0,-1l1,0l0,-1l0,-1l1,0l0,-1l1,0l0,-1l1,0l0,-1l1,0l1,1l1,0l1,-1l0,1l1,0l0,1l1,0l1,0l0,1l1,0l0,1l0,1l1,0l0,1l0,1l1,1l0,1l0,1l0,1l1,1l0,1l0,1l1,1l0,1l0,1l1,1l0,1l0,1l1,1l0,1l0,1l1,1l0,1l0,1l1,1l0,1l0,1l1,1l0,1l0,1l0,1l1,1l0,1l0,1l0,1l1,0l0,1l0,1l1,1l0,1l0,1l1,1l0,1l0,1l1,0l0,1l0,1l0,1l1,1l0,1l0,1l0,1l1,0l0,1l0,1l0,1l0,1l1,1l0,1l0,1l0,1l0,1l1,1l0,1l0,1l0,1l1,1l0,1l0,1l0,1l0,2l1,1l0,1l0,1l0,1l0,1l1,2l0,1l0,1l0,2l0,1l1,1l0,1l0,1l0,1l0,1l1,1l0,1l0,2l0,1l0,1l1,1l0,1l0,1l0,1l0,1l1,1l0,1l0,1l0,1l1,1l0,1l0,1l0,1l1,1l0,1l0,1l1,1l0,1l0,1l1,0l0,1l0,2l1,0l0,1l0,1l1,0l0,1l1,0l1,0l0,-1l1,0l0,-1l1,-1l0,-1l0,-1l1,-1l0,-1l0,-1l0,-1l1,-1l0,-1l0,-1l0,-2l0,-1l1,-1l0,-1l0,-1l0,-2l0,-1l1,-2l0,-1l0,-2l0,-1l0,-1l0,-2l1,-1l0,-1l0,-1l0,-1l0,-1l1,-1l0,-1l0,-1l0,-1l0,-1l1,-1l0,-1l0,-1l0,-1l1,-1l0,-1l0,-1l0,-1l1,-1l0,-1l0,-1l0,-1l1,-1l0,-1l0,-1l0,-1l1,-1l0,-1l0,-1l0,-1l0,-1l1,-1l0,-1l0,-1l0,-1l0,-1l1,-1l0,-2l0,-1l0,-1l1,-1l0,-2l0,-1l0,-1l1,-1l0,-1l0,-1l0,-1l0,-1l1,0l0,-1l0,-1l0,-1l0,-1l1,-1l0,-1l0,-1l0,-1l1,-1l0,-1l0,-1l0,-1l1,0l0,-1l0,-1l1,7l0,-1l0,-1l0,-1l1,-1l0,-1l0,-1l1,-1l0,-1l0,-1l1,-1l0,-1l0,-1l1,0l0,-1l0,-1l0,-1l1,0l0,-1l0,-1l1,-1l0,-1l1,0l0,-1l0,-1l1,0l0,-1l1,0l0,-1l1,0l0,-1l1,0l0,-1l1,0l1,0l1,0l0,1l1,1l1,1l1,0l0,1l0,1l1,1l0,1l1,1l0,1l0,1l1,1l0,1l0,1l1,0l0,1l0,1l1,1l0,1l0,1l1,1l0,1l0,1l1,1l0,1l0,1l1,1l0,1l0,1l0,1l0,1l1,0l0,1l0,1l0,1l1,0l0,1l0,1l0,1l1,1l0,1l0,1l0,1l1,0l0,1l0,1l0,1l1,0l0,1l0,1l0,1l1,0l0,1l0,1l0,1l1,0l0,1l0,1l0,1l0,1l1,0l0,1l0,1l0,1l0,1l1,1l0,1l0,1l0,1l0,1l1,1l0,1l0,1l0,1l0,1l1,1l0,1l0,1l0,2l0,1l1,1l0,1l0,1l0,1l0,1l1,2l0,1l0,1l0,1l0,1l1,1l0,2l0,1l0,1l0,2l1,1l0,1l0,1l0,2l0,1l1,1l0,1l0,1l0,1l0,2l1,1l0,1l0,1l0,1l0,1l1,1l0,1l0,1l0,1l1,1l0,1l0,1l0,1l1,1l0,1l0,1l0,1l1,1l0,1l0,1l0,1l1,0l0,1l0,1l1,0l0,1l0,1l1,0l0,1l1,0l1,0l1,-1l0,-1l0,-1l1,0l0,-1l0,-1l0,-1l1,-1l0,-2l0,-1l0,-1l0,-1l1,-1l0,-1l0,-2l0,-1l0,-1l1,-1l0,-2l0,-2l0,-1l0,-2l1,-1l0,-1l0,-2l0,-2l0,-1l1,-2l0,-1l0,-2l0,-1l0,-1l1,-2l0,-1l0,-1l0,-1l0,-1l1,-1l0,-2l0,-1l0,-1l0,-1l1,-1l0,-1l0,-1l0,-1l1,-1l0,-1l0,-1l0,-1l1,-1l0,-1l0,-1l0,-1l1,-1l0,-1l0,-1l0,-1l0,-1l1,-1l0,-1l0,-1l0,-1l0,-1l1,-1l0,-2l0,-1l0,-1l0,-1l1,-1l0,-1l0,-1l0,-1l0,-1l1,-1l0,-1l0,-1l0,-1l0,-1l1,-1l0,-1l0,-1l0,-1l1,-1l0,-1l0,-1l0,-1l1,-1l0,-1l0,-1l1,-1l0,28l1,0l0,2l0,1l1,2l0,1l0,2l0,1l0,1l1,0l0,1l0,2l0,1l0,1l1,1l0,2l0,1l0,2l0,1l1,1l0,1l0,2l0,1l0,1l1,2l0,1l0,1l0,1l0,2l1,2l0,2l0,1l0,2l1,0l0,13l0,1l0,1l0,1l1,1l0,1l0,1l0,2l1,0l0,1l0,1l0,1l1,0l0,1l0,1l1,0l0,1l0,1l0,1l1,0l0,1l0,1l1,0l0,1l0,-1l1,0l0,-3l0,-1l0,-1l1,0l0,-1l0,-1l0,-2l0,-1l1,-1l0,-1l0,-1l0,-2l0,-3l1,-3l0,-1l0,-1l0,-1l0,-1l1,-2l0,-1l0,-1l0,-2l1,-1l0,-1l0,-2l0,-1l1,-1l0,-2l0,-1l0,-2l0,-1l1,-1l0,-1l0,-1l1,-1l0,-1l0,-2l1,-1l0,-1l0,-1l0,1l1,-1l0,-1l0,-1l0,-2l0,-1l1,-1l0,-1l0,-2l0,-1l0,-3l1,-1l0,-1l0,-1l0,-1l1,-1l0,-1l0,-2l0,-1l0,-2l1,-2l0,-1l0,-1l1,-1l0,-1l1,-1l0,-1l0,-2l0,-1l0,-1l1,-1l0,-1l0,-1l0,-2l0,-1l1,0l0,-1l0,-1l1,-1l0,-1l0,-1l0,-1l1,-1l0,-2l0,-1l0,-1l0,-1l1,-1l0,-2l0,-1l0,-1l0,-1l1,0l0,1l0,-1l0,-1l1,-1l0,-1l0,-1l0,-1l1,-1l0,-1l0,-1l0,2l1,1l0,-1l0,-1l1,-1l0,-2l0,-1l1,0l0,1l1,0l0,-1l0,-1l0,1l0,-1l1,0l0,-1l0,-1l0,-1l1,-1l0,-1l1,-1l0,1l0,-1l1,0l0,-1l0,-1l1,1l0,1l0,1l1,0l0,1l0,-1l1,0l0,-1l0,-1l1,0l0,-1l0,1l1,0l0,1l1,0l0,2l0,1l0,1l0,1l1,1l0,1l0,1l1,0l0,1l0,1l0,1l1,1l0,1l0,1l0,1l1,1l0,1l0,1l0,1l1,0l0,1l0,2l0,1l0,1l1,0l0,1l0,1l0,1l1,1l0,1l0,1l0,1l0,1l1,1l0,1l1,0l0,1l0,1l1,1l0,1l0,1l1,0l0,1l0,1l0,1l1,1l0,1l1,0l0,1l0,1l0,1l1,1l0,1l0,1l1,1l0,1l0,1l0,1l1,1l0,1l0,1l0,1l0,2l1,0l0,1l0,1l0,1l1,1l0,2l0,1l0,1l0,1l1,1l0,1l0,1l0,1l1,2l0,1l0,1l0,1l1,2l0,2l0,1l0,2l1,1l0,1l0,2l0,2l0,1l1,1l0,2l0,1l1,2l0,1l0,1l0,1l0,2l0,1l1,1l0,2l0,1l0,1l1,2l0,1l0,1l0,1l1,0l0,1l0,1l0,1l1,0l0,1l0,1l1,0l0,1l0,1l1,0l0,1l0,1l1,0l0,1l0,1l1,0l0,1l1,-1l0,-1l0,2l1,0l0,-1l0,-1l0,1l1,0l0,-1l1,0l0,-1l0,-1l0,-1l0,-1l1,-1l0,-1l0,-1l0,-1l0,-1l1,0l0,-1l0,-1l0,-1l1,-1l0,-3l0,-3l0,-2l0,-2l1,-1l0,-2l0,-3l0,-2l0,-1l1,-2l0,-1l0,-1l0,-1l0,-1l1,0l0,-1l0,-6l1,-1l0,-1l0,-1l0,-1l1,-2l0,-1l0,-1l0,-1l1,-2l0,-2l0,-1l0,-2l1,-2l0,-1l0,-1l0,-1l0,-1l1,-1l0,-1l0,-2l0,-1l0,-1l1,-1l0,-2l0,-1l0,-1l0,-1l1,-1l0,-1l0,-2l0,-1l0,-2l1,-1l0,-2l0,-1l1,-1l0,-2l0,-1l0,-1l1,1l0,-1l0,-1l1,0l0,-1l0,-1l0,-1l1,0l0,-1l1,-1l0,-1l0,-1l0,-1l1,0l0,-1l0,-1l1,0l0,-1l0,-1l1,1l0,-2l1,1l0,-1l0,-1l1,0l0,-1l0,-1l0,-1l1,-1l0,-1l0,-1l0,-1l1,0l0,-1l0,-1l1,0l0,1l0,-1l1,0l1,0l0,1l1,0l0,-1l0,-1l0,-1l1,0l0,2l0,2l0,1l1,0l0,-1l0,1l1,0l0,1l0,-1l1,-1l0,1l0,1l1,0l0,1l0,1l0,1l1,0l0,1l0,1l0,1l1,2l0,2l0,2l0,1l0,1l1,1l0,1l0,1l1,1l0,1l1,0l0,1l0,1l1,1l0,1l0,1l1,2l0,1l0,1l0,1l1,0l0,1l0,1l0,1l1,1l0,1l0,1l1,1l0,1l0,1l1,0l0,-1l0,1l1,0l0,1l0,1l1,1l0,1l0,1l1,0l0,1l1,1l0,1l0,1l0,1l0,1l1,1l0,1l0,1l0,2l1,1l0,1l0,1l1,0l0,1l0,1l0,1l1,1l0,1l0,1l0,1l1,2l0,1l0,1l0,1l0,1l1,2l0,1l0,1l0,2l1,1l0,1l0,1l0,1l1,1l0,1l0,1l0,2l0,1l1,1l0,2l0,1l0,1l0,1l1,1l0,1l0,2l0,2l0,1l1,2l0,2l0,1l0,1l1,1l0,1l0,1l0,1l0,1l1,1l0,1l0,1l0,1l0,1l1,0l0,1l0,1l1,1l0,1l1,-1l0,1l0,1l1,0l0,-1l0,1l1,-1l0,-1l0,1l0,1l1,0l0,-1l0,-1l1,-1l0,-1l0,-1l0,-1l0,-1l1,-1l0,-1l0,-1l0,-1l0,-1l1,-1l0,-1l0,-2l0,-2l0,-1l1,-1l0,-1l0,-2l0,-2l0,-2l1,-1l0,-1l0,-2l0,-1l1,0l0,-1l0,-1l0,-2l1,-1l0,-2l0,-1l0,-2l1,-1l0,-1l0,-1l0,-1l1,-2l0,-2l0,-2l0,-1l0,-1l1,0l0,-1l0,-2l0,-1l0,-1l1,-1l0,-1l0,-1l1,0l0,-4l0,-1l1,-2l0,-2l0,-2l0,-1l1,-1l0,-1l0,-2l0,-1l0,-2l1,0l0,-1l0,-1l0,-1l0,-1l1,-1l0,-1l0,-1l0,-2l1,-1l0,1l0,-1l1,-1l0,-1l0,-1l0,-1l1,0l0,1l0,-1l0,-2l1,1l0,-1l0,-1l1,-2l1,-1l0,-1l0,-1l1,0l0,-1l0,-1l1,0l0,-1l0,-1l1,-1l0,-2l1,0l0,-1l1,1l0,1l0,-1l0,-2l1,-1l0,1l0,-1l1,0l0,-2l0,-1l0,1l0,1l1,1l0,-1l0,-2l1,-1l0,-1l0,-1l0,-1l1,0l0,-1l0,1l0,-1l1,-1l0,1l1,0l0,1l0,1l1,1l0,1l0,1l0,2l1,0l1,0l1,0l0,1l1,0l0,1l0,1l1,0l0,1l0,1l1,1l1,0l0,1l0,1l1,1l0,1l0,1l1,1l0,1l0,1l0,1l0,1l1,0l0,1l0,1l1,1l0,1l0,1l1,0l0,1l0,1l1,1l0,1l0,1l0,1l1,2l0,1l0,1l0,1l1,1l0,1l0,2l0,1l1,1l0,1l0,1l0,1l1,1l0,1l0,1l1,0l0,1l0,1l0,1l0,1l1,1l0,1l0,1l0,2l1,1l0,1l0,1l0,1l0,1l1,0l0,1l0,1l0,1l1,2l0,1l0,2l0,1l0,1l1,2l0,1l0,1l0,1l1,1l0,1l0,2l0,1l0,2l1,2l0,2l0,2l0,1l0,1l1,0l0,1l0,2l0,1l0,1l1,2l0,1l0,1l0,1l0,1l1,1l0,1l0,1l0,1l0,1l1,0l0,1l0,1l0,1l0,1l1,1l0,1l0,1l0,1l1,1l1,1l0,1l1,1l0,1l0,-1l1,0l0,1l1,0l0,1l0,1l1,0l0,1l1,1l1,-1l0,-1l0,-1l0,-1l1,-1l0,-1l0,-1l0,-1l0,-1l1,-1l0,-1l0,-1l0,-1l0,-1l1,-2l0,-1l0,-1l0,-2l1,-2l0,-2l0,-2l0,-2l1,-3l0,-3l0,-4l0,-3l0,-1l1,-2l0,-2l0,-1l0,-1l0,-2l1,-2l0,-1l0,-1l0,-1l1,-1l0,-1l0,-1l0,-1l1,-1l0,-1l0,-1l1,-1l0,-1l1,-2l0,-1l0,-2l0,-2l0,-1l1,-2l0,-1l0,-1l0,-2l1,0l0,-1l0,-1l1,-1l0,-1l0,-2l0,-1l0,-1l1,-1l0,-1l0,-1l0,-1l1,-2l0,-1l0,-1l0,-1l1,0l0,-1l0,-1l0,-1l1,-1l0,-1l0,-1l0,-1l1,-1l0,-1l0,-1l0,-1l1,-1l0,1l1,-1l0,-1l1,-1l0,1l0,1l0,1l1,0l0,-2l0,-1l1,0l0,1l0,-2l0,-1l0,-2l1,0l0,-1l0,-2l0,-1l1,-1l0,-1l1,0l0,-1l0,-1l1,0l1,1l1,0l0,-1l1,-1l0,-1l0,1l1,-1l0,-1l1,-1l0,1l0,1l0,1l0,1l1,1l1,0l0,1l0,1l1,0l0,1l1,0l0,-1l0,1l1,0l0,1l0,1l0,1l0,1l1,0l1,0l1,1l0,1l1,1l0,2l0,1l0,1l0,1l1,1l0,1l0,2l0,1l1,1l0,1l0,1l1,1l0,1l1,1l0,1l0,1l0,1l1,0l0,1l0,1l0,1l1,1l0,1l0,1l1,0l0,1l0,1l1,0l0,1l0,1l0,1l1,0l0,1l0,1l0,1l0,1l1,1l0,1l0,1l0,1l1,1l0,1l0,1l0,1l0,1l0,2l1,2l0,1l0,1l0,1l0,1l1,1l0,1l0,1l0,1l0,2l1,1l0,2l0,1l0,1l0,1l1,1l0,1l0,1l0,1l0,1l1,1l0,2l0,1l0,1l1,1l0,1l0,1l0,1l1,1l0,1l0,1l0,1l0,1l1,2l0,1l0,1l0,1l1,1l0,1l0,1l0,1l1,1l0,1l0,1l1,1l0,1l0,1l1,1l0,1l0,1l1,0l0,1l1,1l0,-1l1,0l0,1l1,0l0,-1l0,1l0,1l1,1l0,-1l1,-1l0,1l1,-1l0,-1l0,-1l1,1l0,-1l0,-2l1,-1l0,-1l0,-1l1,0l0,-1l0,-1l0,-2l0,-2l0,-4l1,-3l0,-3l0,-2l0,-1l0,-1l1,-1l0,-2l0,-1l0,-1l0,-1l1,-2l0,-2l0,-1l0,-1l1,-1l0,-1l0,-2l0,-1l1,-1l0,-1l1,0l0,-1l0,-2l0,-1l1,0l0,-1l0,-1l1,0l0,-1l1,0l0,-2l0,-1l0,-1l1,-1l0,-1l0,-2l0,-2l0,-2l1,-3l0,-2l0,-1l0,-2l0,-2l1,-2l0,-1l0,-1l1,0l0,-1l0,-1l0,-2l0,-2l1,-3l0,-1l0,-1l1,-1l0,-1l0,-1l1,-2l0,-1l0,-1l1,-1l0,-1l1,0l0,1l0,1l0,-1l0,-1l1,-2l0,-1l0,-1l0,-1l0,-1l1,-1l0,-1l0,-1l0,-1l0,-1l1,-1l0,1l0,-1l1,0l0,-1l1,0l0,1l0,-1l0,-1l1,0l0,-1l0,-1l1,0l0,-1l0,1l1,-1l0,-1l0,-1l1,0l0,1l0,1l1,-1l0,1l0,-1l1,0l0,1l0,-1l0,-1l1,0l0,1l0,1l0,1l1,1l0,1l0,1l1,0l0,-1l0,-1l1,0l0,1l0,1l0,1l1,0l1,1l0,1l0,1l1,0l0,1l0,1l0,1l1,1l1,0l0,1l0,1l0,1l1,1l0,1l1,0l0,1l0,1l1,1l0,1l0,1l0,1l1,1l0,1l0,1l1,1l0,1l0,1l1,1l0,1l0,1l0,1l1,1l0,1l0,1l1,0l0,1l0,1l0,1l1,1l0,1l0,1l1,0l0,1l0,2l1,1l0,1l0,1l0,1l0,1l1,2l0,1l0,1l0,1l1,1l0,2l0,1l0,2l0,1l1,2l0,2l0,2l0,2l0,2l1,1l0,2l0,1l0,2l0,1l1,2l0,1l0,2l0,2l0,2l1,1l0,1l0,2l0,1l0,1l1,1l0,2l0,2l0,1l0,2l1,1l0,2l0,1l0,1l0,1l1,1l0,1l0,1l0,2l1,1l0,2l0,1l0,2l0,1l1,1l0,1l0,1l0,1l1,0l0,1l0,1l0,1l1,1l0,1l0,1l0,1l1,1l0,1l0,1l1,1l1,1l0,1l0,1l1,0l0,1l1,0l0,1l1,-1l0,1l1,0l0,-1l0,-1l0,-1l1,-1l0,-1l0,-1l0,-1l1,-1l0,-2l0,-1l0,-2l1,-1l0,-1l0,-1l1,-2l0,-2l0,-1l0,-1l0,-2l1,-3l0,-4l0,-4l0,-2l0,-3l1,-1l0,-2l0,-3l0,-3l0,-3l1,-2l0,-1l0,-2l0,-2l0,-2l1,-2l0,-1l0,-2l0,-2l1,-1l0,-2l0,-2l0,-1l1,-1l0,-1l0,-1l1,-1l0,-1l0,-2l0,-1l0,-1l1,0l0,-1l0,-1l1,-5l0,1l0,-4l0,-1l0,-2l1,0l0,-1l0,-1l0,-2l0,-1l1,-1l0,-1l0,-1l0,-1l1,-1l0,-1l0,-2l0,-1l0,-2l1,-2l0,-1l0,-1l1,0l0,-1l0,-1l0,-1l0,-1l1,0l0,-1l0,-1l1,-1l0,-1l0,-1l1,-1l0,-1l0,-1l0,-1l1,0l0,-1l0,-1l1,-1l0,-2l0,-2l0,-1l0,-1l1,0l0,-1l0,-1l1,1l0,-1l0,-1l1,-2l0,-1l1,0l0,-1l0,1l0,1l1,1l0,-1l0,-1l1,-1l0,-1l0,-1l0,-1l0,-1l1,0l1,0l0,1l1,-1l0,-1l0,1l1,0l0,1l1,0l0,1l1,0l0,1l0,-1l1,0l0,1l0,1l0,1l1,0l0,1l0,1l1,0l0,1l1,0l0,1l0,1l0,1l0,1l1,2l0,1l0,1l0,1l0,1l1,0l0,1l0,1l0,1l1,0l0,1l1,1l0,1l1,1l0,1l0,2l1,2l0,1l0,1l1,1l0,1l0,1l0,2l0,1l1,1l0,1l0,1l1,0l0,1l0,1l1,0l0,1l0,1l1,1l0,1l0,1l0,1l0,2l1,1l0,1l1,1l0,1l0,1l0,1l0,1l1,1l0,1l0,1l0,1l0,1l1,1l0,1l0,1l0,1l0,1l0,1l1,1l0,1l0,2l0,1l0,1l1,1l0,1l0,1l0,1l0,1l1,1l0,1l0,1l0,2l0,1l1,2l0,1l0,1l0,1l0,2l1,2l0,1l0,2l0,1l0,1l1,1l0,1l0,1l0,1l0,1l1,2l0,1l0,2l0,1l1,2l0,3l0,1l0,1l1,1l0,1l0,1l0,1l0,1l1,1l0,1l0,1l0,1l0,1l1,1l0,1l0,1l0,1l1,2l0,1l0,1l0,1l1,0l0,1l0,1l0,1l1,0l0,1l0,1l0,1l1,0l0,-1l1,0l0,1l0,-1l1,0l0,-1l0,-1l1,0l0,-1l0,-1l0,-1l1,0l0,-2l0,-2l0,-1l0,-1l1,-1l0,-2l0,-2l0,-2l0,-2l1,-3l0,-2l0,-1l0,-2l0,-3l1,-3l0,-2l0,-3l0,-2l0,-1l0,-2l1,-2l0,-2l0,-2l0,-2l0,-2l1,-1l0,-1l0,-1l0,-1l0,-2l1,-2l0,-1l0,-1l1,-2l0,-1l0,-2l0,-2l0,-1l1,-1l0,-1l1,0l0,-1l0,-1l0,-1l0,-1l1,-1l0,-1l0,-1l0,-1l0,-1l1,-2l0,-1l0,-1l0,-1l1,0l0,-1l0,-1l0,-1l0,-1l1,0l0,-2l0,-1l0,-2l0,-2l1,-1l0,-2l0,-1l1,1l0,-1l1,0l0,-1l0,-2l0,-1l1,-2l0,-1l0,1l0,-1l1,0l0,-1l0,-1l0,-1l1,-1l0,-1l0,-1l0,-1l1,-1l0,-2l0,-1l0,-1l1,-1l0,-1l0,-1l0,-1l0,-1l1,0l0,-1l0,1l0,-1l1,1l0,-1l0,-1l1,-1l0,-1l1,0l0,-1l0,-2l0,-1l1,-1l0,-1l0,1l0,1l1,0l0,-1l0,-1l0,-1l1,0l0,1l0,1l0,1l1,0l0,-1l0,-1l0,-1l0,-1l1,-1l0,-1l0,1l1,-1l0,1l0,1l0,1l1,1l1,0l0,-1l0,-1l1,1l0,-1l1,0l0,1l0,1l0,1l1,0l0,1l1,0l0,1l0,1l1,1l0,1l1,0l0,1l0,1l1,0l0,1l0,1l1,1l0,1l0,1l1,0l0,1l0,1l1,0l0,1l0,1l0,1l1,1l0,1l0,1l0,1l0,1l1,1l0,2l0,1l0,2l1,0l0,1l0,1l0,1l0,1l1,1l0,1l0,1l0,1l1,0l0,1l0,1l0,1l1,1l0,2l0,1l0,1l1,0l0,1l1,1l0,1l0,1l0,2l1,1l0,1l0,1l0,1l0,1l1,1l0,1l0,1l0,1l1,2l0,1l0,1l0,2l0,2l1,1l0,2l0,1l0,1l0,2l1,1l0,1l0,1l0,1l0,1l1,2l0,1l0,1l0,2l0,1l1,1l0,2l0,2l0,2l0,2l1,2l0,1l0,2l0,1l0,1l1,1l0,1l0,1l0,1l1,0l0,1l0,1l0,1l1,1l0,1l0,1l1,1l0,2l0,1l1,1l0,1l0,1l0,1l0,1l1,1l0,1l0,1l1,1l0,1l0,1l1,0l0,1l1,0l0,1l1,0l0,-1l1,-1l0,-1l1,0l0,-1l1,0l0,-1l0,-1l0,-1l0,-1l1,0l0,-1l0,-1l1,-1l0,-1l0,-3l0,-2l0,-1l1,-1l0,-1l0,-2l0,-1l0,-2l1,-1l0,-2l0,-1l0,-3l0,-1l1,-2l0,-2l0,-2l1,-3l0,-2l0,-2l0,-1l0,-2l1,0l0,-1l0,-1l0,-1l0,-1l1,0l0,-1l0,-1l0,-1l0,-1l1,0l0,-1l0,-3l0,-2l1,-2l0,-1l0,-1l0,-1l1,-2l0,-1l0,-2l0,-1l0,-2l1,-1l0,-1l0,-1l1,-1l0,-2l0,-1l0,-2l0,1l1,0l0,-1l0,-1l0,-1l0,-1l1,-2l0,-2l0,-2l0,-1l0,-2l1,0l0,-1l0,-1l1,-1l0,-1l0,-1l0,-1l1,-1l0,-1l1,0l0,-1l0,-1l0,-1l1,-1l0,-1l0,-1l0,-1l1,-1l0,-1l0,-1l1,0l0,-1l1,0l0,-1l0,-1l1,1l0,-1l0,-1l0,-1l1,0l0,-2l1,-1l0,-1l0,-1l1,-1l0,-1l0,-1l1,0l0,1l0,-1l0,-1l1,0l0,1l1,-1l0,-1l0,-1l0,-1l0,-1l1,-1l0,1l1,0l1,0l1,1l0,-1l1,0l0,-1l0,-1l1,1l0,1l0,1l1,1l0,-1l0,1l0,1l0,1l1,1l0,1l0,1l1,1l0,1l1,0l0,1l0,1l0,1l1,1l0,1l0,1l0,1l0,1l1,1l0,1l0,1l0,1l0,2l1,1l0,1l0,1l0,1l0,2l1,1l0,1l0,1l1,1l0,2l0,1l0,1l0,1l1,1l0,1l0,1l0,1l0,1l1,1l0,1l0,1l1,1l0,1l0,1l0,1l1,1l0,1l0,1l0,1l0,1l1,1l0,1l0,1l0,1l1,1l0,1l0,1l0,1l0,2l1,1l0,2l0,1l0,1l0,1l1,2l0,1l0,2l0,2l0,1l1,0l0,1l0,2l0,1l0,1l1,0l0,1l0,1l0,1l1,1l0,1l0,1l0,1l1,1l0,1l0,1l0,2l0,1l1,1l0,1l0,2l0,1l0,1l1,1l0,2l0,1l0,1l1,1l0,2l0,1l0,1l0,1l1,0l0,1l0,1l0,1l1,1l0,1l0,2l0,1l1,1l0,1l0,1l0,1l1,0l0,1l0,1l0,1l1,0l0,1l0,1l0,1l1,0l0,1l1,1l0,1l0,1l0,1l1,0l0,1l0,-1l0,-1l1,1l0,1l0,1l1,0l0,-1l0,-1l0,-1l1,-1l0,-1l0,-1l0,-2l0,-1l1,-1l0,-1l0,-1l0,-2l1,-1l0,-1l0,-1l0,-1l0,-2l1,-2l0,-2l0,-2l0,-1l0,-1l1,-1l0,-2l0,-2l0,-1l0,-1l1,-2l0,-1l0,-1l0,-1l0,-1l1,-1l0,-1l0,-1l0,-1l1,-2l0,-2l0,-2l0,-3l0,-1l1,-2l0,-2l0,-2l1,-1l0,-1l0,-1l0,-1l1,0l0,-1l0,-2l1,-1l0,-1l1,-2l0,-1l0,-1l0,-1l0,-1l1,-1l0,-2l0,-1l0,-1l1,-1l0,-2l0,-2l0,-1l1,-2l0,-1l0,-2l0,-1l0,-1l1,-2l0,-1l1,1l0,-1l0,-2l0,-1l1,0l0,-1l0,-2l1,-1l0,-1l0,-1l0,-1l0,-1l1,-1l0,-1l0,-1l0,-1l0,1l1,0l0,-1l0,-1l1,0l0,-2l0,-1l0,-1l0,1l1,0l0,-1l0,-1l1,0l0,-1l0,-1l0,-1l0,-1l1,-1l0,-1l0,-1l0,-1l1,0l1,0l0,-1l1,-1l0,-1l0,-1l1,0l1,0l0,1l0,-1l0,1l1,-1l1,-1l0,-1l0,-1l0,1l1,0l0,1l0,1l0,-1l1,-1l0,-1l0,1l0,1l0,1l1,1l0,-1l1,0l0,-1l0,1l1,0l0,-1l0,1l1,2l0,1l1,0l0,1l1,0l0,1l0,1l1,1l0,1l0,1l1,0l0,1l0,1l0,1l0,1l1,1l0,1l0,1l0,1l1,1l0,1l0,1l1,1l0,1l0,1l0,1l1,1l0,1l0,1l0,1l1,2l0,1l0,1l0,1l1,1l0,1l0,1l0,1l1,1l0,1l0,1l0,1l1,0l0,1l0,1l0,1l0,1l1,1l0,1l0,1l0,1l0,1l1,1l0,2l0,2l0,1l1,1l0,1l0,1l1,2l0,1l0,2l0,1l0,1l1,1l0,1l0,1l0,1l0,2l1,1l0,2l0,1l0,2l0,2l1,2l0,1l0,2l0,2l0,2l1,2l0,1l0,1l0,2l0,1l1,1l0,1l0,1l0,1l1,1l0,1l0,1l0,1l0,1l1,0l0,1l0,1l1,0l0,1l0,1l0,2l1,1l0,1l0,2l0,2l1,2l0,1l0,1l1,2l0,1l0,1l0,1l1,1l0,1l0,1l1,0l0,1l0,1l0,1l1,1l0,1l0,1l1,0l1,-1l0,-1l1,0l0,-1l0,-1l1,0l0,-1l0,-1l1,-1l0,-1l0,-2l0,-1l1,0l0,-1l0,-1l1,-2l0,-1l0,-1l1,-2l0,-2l0,-1l0,-1l0,-1l1,-2l0,-1l0,-1l0,-3l0,-2l1,-3l0,-3l0,-4l0,-2l0,-3l1,-2l0,-2l0,-1l0,-1l0,-3l1,-2l0,-2l0,-2l1,0l0,-1l0,-1l1,-1l0,-2l0,-1l0,-2l0,-1l1,-1l0,-1l0,-1l0,-1l0,-1l1,-1l0,-2l0,-1l0,-1l1,-2l0,-1l0,-1l0,-1l1,-1l0,-1l0,-1l0,-2l0,-2l1,-1l0,-1l0,-1l0,-1l0,-1l0,-1l1,-1l0,-1l0,-1l0,1l1,-3l0,-1l0,-1l0,-2l0,-2l1,0l0,1l0,-2l1,-1l0,-2l0,-1l0,-2l1,-1l0,-1l1,-1l0,-1l0,-2l0,-1l1,-1l0,1l0,1l1,1l0,-1l0,-1l0,-1l1,-1l0,-1l1,0l0,-1l1,1l0,-2l1,0l0,-1l0,-1l0,-1l1,-1l0,-1l0,-1l1,-1l0,-1l0,1l1,0l0,-1l0,-1l1,-1l0,-1l0,3l0,-5l1,-1l0,-2l0,1l1,-1l0,2l0,1l0,-1l1,0l0,-1l0,-1l1,0l0,1l0,1l1,0l0,1l0,-1l0,2l0,-2l1,1l0,-1l0,1l1,0l0,1l0,2l0,1l1,0l0,1l0,1l1,1l0,-1l1,0l0,1l0,1l1,1l0,2l0,1l0,1l0,2l1,1l0,1l0,1l0,1l0,1l1,1l0,1l0,1l1,1l0,2l1,1l0,1l0,1l0,1l0,1l1,1l0,1l0,1l0,1l1,1l0,1l0,1l0,1l1,0l0,1l0,1l0,1l1,1l0,1l0,1l1,2l0,2l0,2l0,2l0,2l1,1l0,2l0,2l0,1l1,1l0,1l0,1l0,2l1,0l0,1l0,1l0,1l0,1l1,1l0,1l0,1l0,2l0,1l1,2l0,1l0,1l0,1l0,2l0,2l1,1l0,1l0,2l0,2l0,2l1,1l0,1l0,1l0,2l1,2l0,1l0,1l0,1l1,1l0,2l0,3l0,1l0,2l1,2l0,1l0,1l0,1l1,1l0,2l0,2l0,2l1,2l0,2l0,2l0,2l0,2l1,0l0,2l0,1l0,1l0,1l1,1l0,1l0,1l0,2l0,1l1,1l0,1l0,1l0,1l0,1l1,1l0,1l0,1l1,1l0,1l1,1l0,1l1,0l0,1l1,0l0,-2l1,-1l0,-1l0,-1l1,0l0,-1l0,-1l0,-1l1,0l0,-1l0,-1l1,-2l0,-1l0,-1l0,-2l0,-1l1,-1l0,-3l0,-1l0,-2l0,-3l1,-4l0,-3l0,-2l0,-3l0,-2l1,-3l0,-3l0,-4l0,-1l0,-2l1,-1l0,-1l0,-1l0,-2l0,-1l1,-2l0,-2l0,-1l0,-2l0,-1l1,-2l0,-1l0,-1l0,-1l1,-1l0,-1l0,-1l0,-1l0,-1l1,-2l0,-2l0,-2l0,-1l0,-2l1,-1l0,-1l0,-1l0,-2l0,-2l1,-1l0,-1l0,-1l0,-2l1,-2l0,-1l0,-2l0,-1l1,-2l0,-1l0,-1l0,-1l0,-1l1,-1l0,-1l0,-1l1,-1l0,-1l0,-2l0,-1l1,-1l0,-1l0,-1l1,-2l0,-1l0,-1l0,-1l0,-2l1,-1l0,1l0,1l1,-1l0,-1l0,-1l0,-1l0,-1l1,0l0,-2l0,-1l0,-1l1,-1l0,-1l0,-1l0,-1l1,-1l0,-1l1,-1l0,-1l0,-1l1,0l0,-2l1,0l0,-1l0,-1l1,-1l0,-1l0,-1l1,-1l0,1l1,0l0,-1l1,-2l0,-1l0,-1l1,0l0,1l0,1l0,1l1,0l0,-1l0,-1l0,-1l1,0l1,0l0,1l0,1l1,1l1,0l0,1l1,0l0,1l0,1l1,1l0,1l1,-1l0,1l0,1l0,2l1,1l0,1l0,1l0,1l1,0l0,1l0,1l1,2l0,1l0,1l0,1l1,1l0,1l1,0l0,1l0,1l1,0l0,4l0,1l1,1l0,1l0,1l0,1l0,1l1,0l0,1l0,1l1,1l0,1l0,1l0,1l1,0l0,2l0,1l0,1l1,0l0,1l0,1l0,1l0,1l1,0l0,1l0,1l0,1l1,1l0,1l0,1l0,1l0,1l1,1l0,1l0,2l0,1l0,2l1,2l0,1l0,3l0,2l0,1l1,2l0,2l0,2l0,1l0,2l1,2l0,2l0,1l0,2l0,2l1,1l0,1l0,2l0,1l0,1l1,1l0,1l0,1l0,2l0,1l1,0l0,1l0,1l0,2l1,1l0,1l0,1l1,1l0,1l0,1l0,2l1,1l0,1l0,1l0,1l1,1l0,1l0,1l0,1l1,0l0,1l0,1l1,1l0,1l0,1l1,1l0,1l0,1l1,1l0,1l1,1l1,0l1,0l0,-1l0,-1l1,-1l0,-1l0,-1l0,-1l1,-1l0,-1l0,-1l0,-2l1,-1l0,-2l0,-1l0,-1l0,-3l1,-1l0,-2l0,-2l0,-2l0,-1l1,-2l0,-2l0,-1l0,-1l0,-3l1,-2l0,-1l0,-1l0,-1l0,-2l1,-1l0,-1l0,-1l0,-2l0,-1l1,-1l0,-1l0,-2l0,-1l0,-2l1,-1l0,-1l1,0l0,-1l0,-1l0,-1l1,-1l0,-1l0,-2l1,-1l0,-1l0,-1l0,-2l0,-2l1,-1l0,-2l0,-1l1,-3l0,-1l0,-3l0,-1l0,-1l1,-1l0,-1l0,-1l0,-1l1,0l0,-1l0,-1l0,-1l1,-2l0,-1l0,-1l0,-1l1,0l0,-1l1,-1l0,-1l0,-1l0,-1l0,-1l1,-1l0,-1l0,-1l1,-1l0,-1l0,1l0,-1l1,0l0,-1l0,-1l0,-2l1,-1l0,-1l0,-1l1,0l0,-1l0,-1l0,-1l1,-1l0,-1l0,-1l0,-1l1,0l0,1l0,-1l0,-1l1,0l0,-1l1,0l0,1l0,-1l1,1l0,-1l1,-1l0,-1l0,-1l0,-2l1,0l0,1l1,0l0,-1l1,-1l0,-1l0,-1l0,1l1,2l0,1l0,-2l0,-1l1,-1l0,-1l0,-1l1,0l0,1l1,3l0,1l0,1l1,1l0,1l1,0l1,1l0,1l0,1l0,1l1,1l0,1l0,1l0,1l1,1l0,1l1,1l0,1l0,1l1,0l0,2l0,1l1,1l0,1l0,1l1,0l0,1l0,2l0,2l1,0l0,1l0,1l1,1l0,1l0,1l1,0l0,1l0,1l0,1l1,0l0,1l0,2l0,1l1,0l0,1l0,1l0,1l0,1l1,0l0,1l0,1l1,1l0,1l0,1l0,1l0,1l1,1l0,1l0,1l0,1l0,2l1,1l0,2l0,1l0,1l0,1l1,2l0,2l0,2l0,2l0,2l1,1l0,1l0,1l0,1l0,1l1,2l0,1l0,2l0,1l0,1l0,2l1,0l0,1l0,1l0,2l0,1l1,0l0,1l0,1l0,1l1,0l0,1l0,1l0,1l1,2l0,1l0,1l0,1l0,1l1,1l0,1l0,1l0,1l1,0l0,1l0,1l0,1l0,1l1,1l0,1l0,1l0,1l0,1l1,1l0,1l0,1l0,1l1,1l0,1l0,1l1,0l0,1l1,0l0,1l1,1l0,1" class="g2_1" />
</g>
<path d="M73,258l1181,0l0,-187L73,71l0,187" class="g2_1" />
<path d="M73,240L73,72" class="g2_1" />
<path d="M73,240l-7,0" class="g2_1" />
<path d="M73,212l-7,0" class="g2_1" />
<path d="M73,184l-7,0" class="g2_1" />
<path d="M73,156l-7,0" class="g2_1" />
<path d="M73,128l-7,0" class="g2_1" />
<path d="M73,100l-7,0" class="g2_1" />
<path d="M73,72l-7,0" class="g2_1" />
<text 
transform="matrix(0, -1, 1, 0, 56, 271)"
textLength="61" 
class="s1_1"
>4.0e+06</text>

<text 
transform="matrix(0, -1, 1, 0, 56, 187)"
textLength="61" 
class="s1_1"
>1.0e+07</text>

<text 
transform="matrix(0, -1, 1, 0, 56, 103)"
textLength="61" 
class="s1_1"
>1.6e+07</text>

<text 
transform="matrix(0, -1, 1, 0, 27, 216)"
textLength="100" 
class="s2_1"
>observed</text>

<g clip-path="url(#c1_1)">
<path d="M151,265l1,0l0,1l1,0l1,1l1,0l0,1l1,0l0,1l1,0l1,1l1,0l0,1l1,0l1,0l0,1l1,0l1,0l0,1l1,0l1,0l1,0l0,1l1,0l1,0l1,0l1,0l1,0l1,0l1,0l1,0l1,0l1,0l1,0l1,0l0,-1l1,0l1,0l1,0l1,0l1,-1l1,0l1,0l1,0l1,0l1,0l0,-1l1,0l1,0l1,0l0,-1l1,0l1,0l1,0l0,-1l1,0l1,0l1,0l1,0l1,0l1,0l1,0l1,0l1,1l1,0l0,1l1,0l0,1l1,0l0,1l1,0l0,1l1,0l0,1l1,0l0,1l1,1l0,1l1,0l0,1l1,0l0,1l1,0l1,1l1,1l1,1l0,1l1,0l0,1l1,0l0,1l1,0l0,1l1,0l0,1l1,0l0,1l1,0l0,1l1,0l0,1l1,0l0,1l1,0l1,0l0,1l1,0l1,1l1,0l0,1l1,0l0,1l1,0l0,1l1,0l1,0l0,1l1,0l0,1l1,0l1,0l1,0l0,1l1,0l1,0l1,0l1,1l1,0l1,0l1,0l1,0l1,0l1,0l0,-1l1,0l1,0l1,0l1,0l1,0l0,-1l1,0l1,0l1,0l1,0l1,0l1,-1l1,0l1,0l1,0l0,-1l1,0l1,0l1,0l0,-1l1,0l1,0l0,-1l1,0l1,0l1,0l1,0l1,0l1,0l1,0l0,1l1,0l1,0l0,1l1,0l0,1l1,0l0,1l1,0l0,1l1,0l0,1l1,1l0,1l1,0l0,1l0,1l1,0l0,1l0,1l1,0l0,1l1,1l0,1l1,0l0,1l1,1l0,1l1,0l0,1l1,0l0,1l1,0l0,1l1,1l0,1l1,0l0,1l1,0l0,1l1,0l0,1l1,1l0,1l1,0l0,1l1,0l1,1l1,0l0,1l1,0l1,1l0,1l1,1l0,1l0,1l1,0l0,1l0,1l0,1l1,0l0,1l0,1l0,1l1,1l0,1l0,1l0,1l1,0l0,1l0,1l0,1l0,1l1,1l0,1l0,1l0,1l1,1l0,1l0,1l0,1l0,1l1,1l0,1l0,2l0,1l0,1l0,1l1,1l0,2l0,1l0,1l0,1l1,1l0,2l0,1l0,1l0,1l1,1l0,2l0,1l0,1l0,1l1,2l0,1l0,1l0,1l0,2l1,1l0,1l0,1l0,2l0,1l1,1l0,1l0,2l0,1l0,1l1,1l0,1l0,2l0,1l0,1l1,1l0,1l0,1l0,1l0,1l1,1l0,1l0,1l0,1l0,1l1,1l0,1l0,1l0,1l1,1l0,1l0,1l0,1l1,1l0,1l0,1l0,1l1,0l0,1l0,1l0,1l1,0l0,1l0,1l1,1l0,1l0,1l1,0l0,1l0,1l1,0l0,1l1,0l0,1l1,0l0,1l1,0l1,0l0,-1l1,0l1,-1l0,-1l1,0l0,-1l1,-1l0,-1l0,-1l1,0l0,-1l0,-1l1,-1l0,-1l0,-1l0,-1l1,0l0,-1l0,-1l0,-1l1,-1l0,-1l0,-1l0,-1l0,-1l1,-1l0,-1l0,-1l0,-1l1,-1l0,-1l0,-1l0,-1l0,-1l1,-1l0,-1l0,-2l0,-1l0,-1l1,-1l0,-1l0,-1l0,-1l0,-1l1,-2l0,-1l0,-1l0,-1l0,-1l1,-1l0,-2l0,-1l0,-1l0,-1l1,-2l0,-1l0,-1l0,-1l0,-2l1,-1l0,-1l0,-2l0,-1l0,-1l1,-2l0,-1l0,-1l0,-2l0,-1l1,-1l0,-2l0,-1l0,-1l0,-2l1,-1l0,-1l0,-2l0,-1l0,-1l1,-2l0,-1l0,-1l0,-1l0,-2l0,-1l1,-1l0,-2l0,-1l0,-1l0,-1l1,-2l0,-1l0,-1l0,-1l0,-2l1,-1l0,-1l0,-1l0,-1l0,-1l1,-1l0,-1l0,-1l0,-1l0,-1l1,-1l0,-1l0,-1l0,-1l0,-1l1,-1l0,-1l0,-1l0,-1l1,-1l0,-1l0,-1l1,-1l0,-1l0,-1l1,-1l0,-1l0,-1l1,-1l0,-1l1,-1l0,-1l1,0l0,-1l1,-1l0,-1l1,0l1,0l0,-1l1,0l0,1l1,0l1,0l0,1l1,0l0,1l1,0l0,1l1,0l1,0l1,0l1,0l1,0l1,0l1,0l1,0l0,-1l1,0l1,0l0,-1l1,0l1,0l1,-1l1,0l1,0l1,0l1,0l1,0l0,1l1,0l0,1l1,0l0,1l1,1l0,1l1,0l0,1l1,0l0,1l1,0l0,1l1,0l1,0l0,1l1,0l1,0l0,1l1,0l0,1l1,0l1,0l1,0l0,1l1,0l1,0l1,0l1,0l0,1l1,0l1,0l0,1l1,0l1,0l1,0l0,1l1,0l1,0l1,1l1,0l1,0l1,0l0,1l1,0l1,0l1,0l1,0l0,1l1,0l1,0l1,0l1,0l0,1l1,0l1,0l1,0l1,0l1,0l1,0l1,0l1,0l0,1l1,0l1,0l1,0l1,0l1,0l1,0l1,0l0,-1l1,0l1,0l1,0l0,-1l1,0l1,0l0,-1l1,0l1,-1l1,0l0,-1l1,0l1,0l0,-1l1,0l1,0l1,0l1,0l0,1l1,0l1,0l1,0l1,0l1,0l1,0l0,1l1,0l1,0l1,0l0,1l1,0l1,0l0,1l1,0l1,1l1,0l0,1l1,0l1,0l0,1l1,0l0,1l1,0l1,0l0,1l1,0l0,1l1,0l1,0l0,1l1,0l1,0l0,1l1,0l1,1l1,0l0,1l1,0l1,0l0,1l1,0l1,0l0,1l1,0l1,1l1,0l1,1l1,0l1,0l1,0l1,0l1,0l1,0l1,0l1,0l0,-1l1,0l1,0l0,-1l1,0l1,0l0,-1l1,0l0,-1l1,0l1,0l0,-1l1,0l1,0l0,-1l1,0l1,0l0,-1l1,0l1,0l1,0l1,0l0,-1l1,0l1,0l1,0l1,0l0,-1l1,0l1,0l1,0l1,0l1,0l1,0l0,-1l1,0l1,0l1,0l1,0l1,1l1,0l1,0l0,1l1,0l1,1l0,1l1,0l0,1l1,0l0,1l1,1l0,1l1,0l0,1l1,0l0,1l1,0l0,1l1,0l0,1l1,0l1,0l0,1l1,0l0,1l1,0l0,1l1,0l0,1l1,0l0,1l1,0l0,1l1,0l1,0l0,1l1,0l1,1l1,0l1,0l1,1l1,0l1,0l0,1l1,0l1,0l0,1l1,0l1,0l1,0l1,0l0,1l1,0l1,0l1,0l1,0l1,0l1,0l1,0l1,0l1,0l1,0l1,0l1,0l0,-1l1,0l1,0l1,0l1,0l1,0l1,0l0,-1l1,0l1,0l0,-1l1,0l1,0l0,-1l1,0l1,0l0,-1l1,0l1,0l0,-1l1,0l1,0l0,-1l1,0l0,-1l1,0l1,0l0,-1l1,0l0,-1l1,0l1,0l0,-1l1,0l1,0l0,-1l1,0l1,0l1,0l0,-1l1,0l1,0l1,0l1,0l1,0l0,1l1,0l1,1l0,1l1,0l0,1l1,0l0,1l1,0l0,1l1,0l1,1l1,0l0,1l1,0l0,1l1,0l0,1l1,0l0,1l1,0l0,1l1,0l0,1l1,0l0,1l1,0l0,1l1,0l1,0l0,1l1,0l1,0l1,0l1,0l1,0l1,0l1,0l1,0l1,0l1,0l1,0l1,0l1,0l1,0l1,0l0,-1l1,0l1,0l1,0l0,-1l1,0l1,0l1,0l1,0l0,-1l1,0l1,0l0,-1l1,0l1,-1l1,0l0,-1l1,0l1,0l0,-1l1,0l1,0l0,-1l1,0l0,-1l1,0l1,-1l1,0l0,-1l1,0l0,-1l1,0l0,-1l1,0l0,-1l1,0l1,0l0,-1l1,0l1,0l1,0l1,0l1,1l1,0l1,0l0,1l1,0l0,1l1,0l0,1l1,0l0,1l1,0l0,1l1,0l0,1l1,0l0,1l1,1l0,1l1,0l0,1l0,1l1,0l0,1l0,1l1,0l0,1l0,1l1,0l0,1l0,1l1,1l0,1l1,0l0,1l0,1l1,0l0,1l1,0l1,0l0,1l1,0l1,0l0,1l1,0l1,0l0,1l1,0l0,1l1,0l1,0l0,1l1,0l1,0l1,1l1,0l1,0l1,0l0,1l1,0l1,0l1,0l1,0l0,-1l1,0l1,0l1,0l1,0l1,-1l1,0l0,-1l1,0l1,0l0,-1l1,0l1,-1l1,0l0,-1l1,0l0,-1l1,0l1,-1l1,0l0,-1l1,0l1,0l0,-1l1,0l1,0l0,-1l1,0l1,-1l1,0l1,-1l1,0l0,-1l1,0l1,0l0,-1l1,0l0,-1l1,0l0,-1l1,-1l0,-1l1,0l0,-1l1,0l0,-1l1,-1l0,-1l1,0l0,-1l1,-1l0,-1l1,0l0,-1l1,0l0,-1l1,0l0,-1l1,0l0,-1l1,0l0,-1l1,0l0,-1l1,0l1,0l0,-1l1,0l1,0l1,0l1,0l1,0l1,0l1,0l0,1l1,0l1,0l0,1l1,0l1,0l1,0l1,0l0,1l1,0l1,0l1,0l0,1l1,0l1,0l0,1l1,0l1,0l0,1l1,0l1,0l0,1l1,0l1,0l0,1l1,0l1,0l0,1l1,0l1,0l0,1l1,0l1,0l1,0l1,1l1,0l1,0l1,0l1,0l1,0l1,1l0,-1l1,0l1,0l1,0l1,0l0,-1l1,0l1,0l0,-1l1,0l1,0l0,-1l1,0l0,-1l1,0l0,-1l1,0l1,0l0,-1l1,0l0,-1l1,0l1,0l0,-1l1,0l1,0l0,-1l1,0l0,-1l1,0l0,-1l1,0l1,-1l1,-1l1,0l0,-1l1,0l0,-1l1,0l0,-1l1,0l0,-1l1,0l1,-1l1,0l0,-1l1,0l0,-1l1,0l0,-1l1,0l1,-1l1,0l1,-1l1,0l1,0l1,0l0,1l1,0l0,1l1,0l0,1l1,0l0,1l0,1l1,0l0,1l1,1l0,1l1,0l0,1l1,1l0,1l1,0l0,1l1,0l0,1l1,0l0,1l1,0l0,1l1,0l0,1l1,1l1,0l0,1l1,0l0,1l1,0l1,0l0,1l1,0l1,0l0,1l1,0l0,1l1,0l1,0l0,1l1,0l1,0l0,1l1,0l1,0l0,1l1,0l1,0l1,0l0,1l1,0l1,0l1,0l1,0l1,0l1,0l0,-1l1,0l1,0l0,-1l1,0l1,0l1,0l0,-1l1,0l1,0l0,-1l1,0l1,0l1,0l0,-1l1,0l1,0l1,0l1,0l1,0l1,0l0,-1l1,0l1,0l1,0l1,0l1,0l1,0l0,-1l1,0l0,-1l1,0l1,0l0,-1l1,0l1,0l1,0l0,-1l1,0l1,0l1,0l1,0l1,0l1,0l1,0l0,1l1,0l1,0l0,1l1,0l0,1l1,0l1,0l0,1l1,0l0,1l1,0l0,1l1,0l1,1l1,0l0,1l1,0l0,1l1,0l1,0l0,1l1,0l0,1l1,0l0,1l1,0l0,1l1,0l0,1l1,0l1,0l0,1l1,0l0,1l1,0l1,1l1,0l0,1l1,0l1,0l1,0l0,1l1,0l1,0l0,1l1,0l1,0l1,0l0,1l1,0l1,0l0,1l1,0l1,0l0,1l1,0l1,0l1,0l0,1l1,0l1,0l1,0l1,0l1,0l0,-1l1,0l1,0l0,-1l1,0l1,0l0,-1l1,0l1,0l0,-1l1,0l1,-1l1,0l0,-1l1,0l0,-1l1,0l0,-1l1,0l1,-1l1,0l0,-1l1,0l0,-1l1,0l1,0l0,-1l1,0l1,0l1,-1l1,0l1,0l0,-1l1,0l1,0l1,0l1,0l1,0l1,0l0,1l1,0l1,1l1,0l0,1l1,1l0,1l1,0l0,1l1,0l0,1l0,1l1,0l0,1l1,1l0,1l1,0l0,1l1,1l1,0l0,1l1,0l0,1l1,0l1,1l1,0l0,1l1,0l1,1l1,0l0,1l1,0l1,0l1,0l0,1l1,0l1,0l1,0l1,0l1,0l1,0l0,1l1,0l1,0l1,0l1,0l1,0l1,0l1,0l1,0l1,-1l1,0l1,0l0,-1l1,0l0,-1l1,0l1,0l0,-1l1,0l0,-1l1,0l1,0l0,-1l1,0l0,-1l1,0l0,-1l1,0l0,-1l1,0l0,-1l1,0l1,-1l1,0l0,-1l1,0l0,-1l1,0l0,-1l1,0l0,-1l1,0l0,-1l1,0l0,-1l1,0l0,-1l1,0l0,-1l1,0l0,-1l1,-1l1,-1l1,-1l1,0l0,-1l1,0l0,-1l1,0l1,0l0,-1l1,0l1,0l1,0l0,1l1,0l1,0l0,1l1,0l1,1l1,1l0,1l1,0l0,1l1,0l0,1l0,1l1,0l0,1l1,0l0,1l0,1l1,0l0,1l0,1l1,0l0,1l0,1l1,0l0,1l0,1l1,0l0,1l1,0l0,1l1,0l0,1l1,1l1,1l0,1l1,0l0,1l1,0l0,1l1,0l0,1l1,0l1,1l1,0l0,1l1,0l0,1l1,0l0,1l1,0l1,0l0,1l1,0l1,0l1,0l0,1l1,0l1,0l1,0l1,0l0,1l1,0l1,0l1,0l1,0l1,0l0,1l1,0l1,0l1,0l1,0l0,-1l1,0l1,0l1,0l1,0l1,-1l1,0l1,0l0,-1l1,0l1,0l0,-1l1,0l1,0l0,-1l1,0l1,-1l1,-1l1,0l0,-1l1,0l0,-1l1,-1l0,-1l1,0l0,-1l1,0l0,-1l1,0l0,-1l1,0l0,-1l1,0l0,-1l1,0l1,-1l0,-1l1,0l0,-1l1,0l0,-1l0,-1l1,0l0,-1l1,0l0,-1l1,-1l0,-1l1,0l0,-1l1,0l0,-1l1,-1l1,-1l1,-1l1,0l0,-1l1,0l0,-1l1,0l1,0l1,0l1,0l1,0l1,0l1,0l1,0l1,0l1,0l0,1l1,0l1,0l0,1l1,0l1,0l1,0l1,0l0,1l1,0l1,0l1,0l0,1l1,0l1,0l0,1l1,0l1,0l1,0l0,1l1,0l1,0l1,0l0,1l1,0l1,0l1,0l0,1l1,0l1,0l1,0l1,0l1,0l1,0l1,0l1,0l1,0l1,-1l1,0l1,0l1,0l1,-1l1,0l1,0l1,0l0,-1l1,0l1,0l1,0l0,-1l1,0l1,-1l1,0l0,-1l1,0l0,-1l1,0l0,-1l1,0l0,-1l1,0l0,-1l1,0l1,-1l1,0l0,-1l1,0l0,-1l1,0l1,-1l1,0l1,-1l1,0l1,0l1,0l1,0" class="g2_1" />
</g>
<path d="M73,446l1181,0l0,-188L73,258l0,188" class="g2_1" />
<path d="M73,432L73,283" class="g2_1" />
<path d="M73,432l-7,0" class="g2_1" />
<path d="M73,407l-7,0" class="g2_1" />
<path d="M73,382l-7,0" class="g2_1" />
<path d="M73,357l-7,0" class="g2_1" />
<path d="M73,333l-7,0" class="g2_1" />
<path d="M73,308l-7,0" class="g2_1" />
<path d="M73,283l-7,0" class="g2_1" />
<text 
transform="matrix(0, -1, 1, 0, 56, 465)"
textLength="65" 
class="s1_1"
>8500000</text>

<text 
transform="matrix(0, -1, 1, 0, 56, 371)"
textLength="74" 
class="s1_1"
>10500000</text>

<text 
transform="matrix(0, -1, 1, 0, 27, 381)"
textLength="55" 
class="s2_1"
>trend</text>

<g clip-path="url(#c2_1)">
<path d="M117,458l0,-1l0,1l1,-1l0,-1l1,0l0,-1l1,-1l1,0l0,-1l1,0l1,1l0,1l1,0l0,1l1,-1l0,1l0,1l0,1l1,5l0,1l0,1l1,0l0,1l0,1l0,1l1,0l0,1l0,1l0,1l0,1l1,1l0,1l0,1l0,1l0,1l1,1l0,2l0,1l0,1l0,1l1,1l0,2l0,2l0,1l0,1l1,2l0,1l0,2l0,2l0,1l1,1l0,2l0,1l0,8l0,3l1,2l0,2l0,2l0,2l0,1l1,2l0,2l0,2l0,2l0,1l1,2l0,2l0,2l0,2l0,2l1,2l0,1l0,2l0,2l0,1l1,2l0,2l0,1l0,2l0,2l1,3l0,1l0,2l0,1l0,2l1,2l0,1l0,2l0,2l0,1l1,1l0,2l0,1l0,1l0,2l1,2l0,1l0,1l0,2l0,1l0,2l1,2l0,1l0,1l0,1l1,2l0,1l0,1l0,1l0,1l1,1l0,2l0,1l0,1l0,1l1,1l0,1l0,1l0,1l1,1l0,1l0,1l0,1l0,1l1,1l0,1l0,1l1,0l0,1l0,1l1,0l0,1l0,1l0,1l1,0l0,1l0,-4l0,-1l0,1l1,0l1,1l0,-1l0,1l1,-1l0,-1l1,0l0,-1l0,1l0,-1l1,0l0,1l0,-1l1,0l0,-1l1,-1l0,-1l0,-1l1,0l0,-1l0,-1l0,-1l0,-1l1,0l0,-1l0,-1l0,-1l1,-1l0,-1l0,-1l0,-1l1,0l0,-1l0,-1l0,-1l0,-1l1,-1l0,-1l0,-2l0,-1l1,-1l0,-1l0,-2l0,-1l0,-1l1,-1l0,-1l0,-1l0,-2l1,0l0,-1l0,-1l0,-2l1,-1l0,-2l0,-2l0,-1l0,-1l1,-1l0,-2l0,-1l0,-1l0,-2l1,-2l0,-2l0,-2l0,-2l0,-2l1,-2l0,-2l0,-2l0,-2l0,-2l1,-1l0,-1l0,-1l0,-2l0,-1l1,-1l0,-1l0,-2l0,-2l0,-1l1,-2l0,-2l0,-2l0,-1l0,-2l1,-2l0,-1l0,-1l0,-2l0,-1l1,-2l0,-1l0,-2l0,-2l0,-2l1,-1l0,-2l0,-2l0,-1l0,-1l1,-1l0,-1l0,-2l0,-2l0,-1l1,-1l0,-1l0,-2l0,-1l0,-1l1,-1l0,-2l0,-1l0,-1l0,-1l1,-2l0,-1l0,-1l0,-1l0,-1l1,-1l0,-1l0,-1l1,-1l0,-1l0,-1l0,-1l0,-1l1,-1l0,-1l0,-1l1,-1l0,-1l0,-1l0,-1l1,0l0,-1l0,-1l1,0l0,-2l0,-1l0,1l1,0l0,-1l0,-1l1,0l0,-1l1,0l0,-1l1,0l0,-1l1,0l1,0l0,1l0,1l1,0l1,0l0,1l0,-1l0,1l1,1l0,1l0,5l0,1l1,0l0,1l0,1l1,1l0,1l0,1l0,1l1,1l0,1l0,1l0,1l0,1l1,1l0,1l0,1l0,2l0,1l1,1l0,1l0,1l0,2l0,2l1,1l0,1l0,2l0,1l0,2l1,2l0,1l0,1l0,2l0,1l1,8l0,3l0,2l0,2l0,2l1,2l0,1l0,2l0,2l0,2l0,2l1,1l0,2l0,2l0,2l0,2l1,2l0,2l0,1l0,2l0,2l1,1l0,2l0,2l0,1l0,2l1,2l0,3l0,1l0,2l0,1l1,2l0,2l0,1l0,2l0,2l1,1l0,1l0,2l0,1l0,1l1,2l0,2l0,1l0,1l0,2l1,1l0,2l0,2l0,1l0,1l1,0l0,1l0,2l0,1l0,1l1,1l0,1l0,1l0,2l0,1l1,1l0,1l0,1l0,1l1,1l0,1l0,1l0,1l0,1l1,1l0,1l0,1l0,1l1,0l0,1l0,1l1,0l0,1l0,1l0,1l1,0l0,1l0,1l0,-4l1,-1l0,1l1,0l0,1l0,-1l1,0l0,1l0,-1l1,-1l0,-1l0,1l1,-1l0,1l1,-1l0,-1l1,0l0,-1l0,-1l0,-1l1,0l0,-1l0,-1l0,-1l1,-1l0,-1l0,-1l0,-1l1,0l0,-1l0,-1l0,-1l0,-1l1,0l0,-1l0,-1l0,-1l1,-1l0,-1l0,-1l1,-2l0,-1l0,-1l0,-1l0,-2l1,-1l0,-1l0,-1l0,-1l0,-1l1,0l0,-2l0,-1l0,-1l1,-2l0,-1l0,-2l0,-2l1,-1l0,-1l0,-1l0,-2l0,-1l1,-1l0,-2l0,-2l0,-2l0,-2l1,-2l0,-2l0,-2l0,-2l0,-2l1,-2l0,-2l0,-1l0,-1l0,-1l1,-2l0,-1l0,-1l0,-1l0,-2l1,-2l0,-1l0,-2l0,-2l0,-2l1,-1l0,-2l0,-2l0,-1l0,-1l1,-2l0,-1l0,-2l0,-1l0,-2l1,-2l0,-2l0,-1l0,-2l0,-2l1,-1l0,-1l0,-1l0,-1l0,-2l0,-2l1,-1l0,-1l0,-1l0,-2l0,-1l1,-1l0,-1l0,-2l0,-1l0,-1l1,-1l0,-2l0,-1l0,-1l0,-1l1,-1l0,-1l0,-1l0,-1l1,0l0,-1l0,-1l0,-1l0,-1l1,-1l0,-1l0,-1l1,-1l0,-1l0,-1l1,-1l0,-1l0,-1l1,0l0,-1l0,-2l1,-1l0,1l0,-1l0,-1l1,0l0,-1l1,0l0,-1l1,0l1,0l0,-1l1,0l0,1l1,1l1,0l0,1l0,-1l1,0l0,1l0,1l0,1l0,5l1,0l0,1l0,1l1,1l0,1l0,1l0,1l1,1l0,1l0,1l0,1l0,1l1,1l0,1l0,1l0,1l0,2l1,1l0,1l0,1l0,1l0,2l1,2l0,1l0,1l0,2l0,1l1,2l0,2l0,1l0,1l0,2l1,1l0,8l0,3l0,2l0,2l1,2l0,2l0,1l0,2l0,2l1,2l0,2l0,1l0,2l0,2l1,2l0,2l0,2l0,2l0,1l1,2l0,2l0,1l0,2l0,2l1,1l0,2l0,2l0,3l0,1l1,2l0,1l0,2l0,2l0,1l1,2l0,2l0,1l0,1l0,2l1,1l0,1l0,2l0,2l0,1l1,1l0,2l0,1l0,2l0,2l1,1l0,1l0,1l0,2l1,1l0,1l0,1l0,1l0,1l1,2l0,1l0,1l0,1l0,1l1,1l0,1l0,1l0,1l1,1l0,1l0,1l0,1l0,1l1,0l0,1l0,1l1,1l0,1l0,1l1,1l0,1l0,1l1,-4l0,-1l0,1l1,0l0,1l1,-1l0,1l0,-1l1,0l0,-1l1,-1l0,1l0,-1l0,1l1,0l0,-1l1,0l0,-1l0,-1l0,-1l1,0l0,-1l0,-1l1,-1l0,-1l0,-1l0,-1l1,-1l0,-1l0,-1l0,-1l1,-1l0,-1l0,-1l1,-1l0,-1l0,-1l0,-1l1,0l0,-1l0,-2l0,-1l0,-1l1,-1l0,-2l0,-1l0,-1l0,-1l1,-1l0,-1l0,-2l1,-1l0,-1l0,-2l0,-1l1,-2l0,-2l0,-1l0,-1l0,-1l1,-2l0,-1l0,-1l0,-2l0,-2l1,-2l0,-2l0,-2l0,-2l0,-2l0,-2l1,-2l0,-2l0,-2l0,-1l0,-1l1,-1l0,-2l0,-1l0,-1l0,-1l1,-2l0,-2l0,-1l0,-2l0,-2l1,-2l0,-1l0,-2l0,-2l0,-1l1,-1l0,-2l0,-1l0,-2l0,-1l1,-2l0,-2l0,-2l0,-1l0,-2l1,-2l0,-1l0,-1l0,-1l0,-1l1,-2l0,-2l0,-1l0,-1l0,-1l1,-2l0,-1l0,-1l0,-1l0,-2l1,-1l0,-1l0,-1l0,-2l0,-1l1,-1l0,-1l0,-1l0,-1l0,-1l1,-1l0,-1l0,-1l1,-1l0,-1l0,-1l0,-1l1,-1l0,-1l0,-1l1,-1l0,-1l0,-1l1,-1l0,-1l1,-2l0,-1l0,1l1,-1l0,-1l1,0l0,-1l1,-1l1,0l0,-1l1,0l1,1l0,1l1,0l0,1l1,-1l0,1l0,1l0,1l1,5l0,1l0,1l1,0l0,1l0,1l0,1l1,0l0,1l0,1l0,1l0,1l1,1l0,1l0,1l0,1l0,1l1,1l0,2l0,1l0,1l0,1l1,1l0,2l0,2l0,1l0,1l1,2l0,1l0,2l0,2l0,1l1,1l0,2l0,1l0,8l0,3l1,2l0,2l0,2l0,2l0,1l1,2l0,2l0,2l0,2l0,1l1,2l0,2l0,2l0,2l0,2l1,2l0,1l0,2l0,2l0,1l1,2l0,2l0,1l0,2l0,2l1,3l0,1l0,2l0,1l0,2l1,2l0,1l0,2l0,2l0,1l1,1l0,2l0,1l0,1l0,2l0,2l1,1l0,1l0,2l0,1l0,2l1,2l0,1l0,1l0,1l1,2l0,1l0,1l0,1l0,1l1,1l0,2l0,1l0,1l0,1l1,1l0,1l0,1l0,1l1,1l0,1l0,1l0,1l0,1l1,1l0,1l0,1l1,0l0,1l0,1l1,0l0,1l0,1l0,1l1,0l0,1l0,-4l0,-1l0,1l1,0l1,1l0,-1l0,1l1,-1l0,-1l1,0l0,-1l0,1l0,-1l1,0l0,1l0,-1l1,0l0,-1l1,-1l0,-1l0,-1l1,0l0,-1l0,-1l0,-1l0,-1l1,0l0,-1l0,-1l0,-1l1,-1l0,-1l0,-1l0,-1l1,-1l0,-1l0,-1l0,-1l1,-1l0,-1l0,-2l0,-1l1,-1l0,-1l0,-2l0,-1l0,-1l1,-1l0,-1l0,-1l0,-2l1,0l0,-1l0,-1l0,-2l1,-1l0,-2l0,-2l0,-1l0,-1l1,-1l0,-2l0,-1l0,-1l0,-2l1,-2l0,-2l0,-2l0,-2l0,-2l1,-2l0,-2l0,-2l0,-2l0,-2l1,-1l0,-1l0,-1l0,-2l0,-1l1,-1l0,-1l0,-2l0,-2l0,-1l1,-2l0,-2l0,-2l0,-1l0,-2l1,-2l0,-1l0,-1l0,-2l0,-1l1,-2l0,-1l0,-2l0,-2l0,-2l1,-1l0,-2l0,-2l0,-1l0,-1l1,-1l0,-1l0,-2l0,-2l0,-1l1,-1l0,-1l0,-2l0,-1l0,-1l1,-1l0,-2l0,-1l0,-1l0,-1l1,-2l0,-1l0,-1l0,-1l0,-1l1,-1l0,-1l0,-1l1,-1l0,-1l0,-1l0,-1l0,-1l1,-1l0,-1l0,-1l1,-1l0,-1l0,-1l0,-1l1,0l0,-1l0,-1l1,0l0,-2l0,-1l0,1l1,0l0,-1l0,-1l1,0l0,-1l1,0l0,-1l1,0l0,-1l1,0l1,0l0,1l0,1l1,0l1,0l0,1l0,-1l0,1l1,1l0,1l0,5l0,1l1,0l0,1l0,1l1,1l0,1l0,1l0,1l1,1l0,1l0,1l0,1l0,1l1,1l0,1l0,1l0,2l0,1l1,1l0,1l0,1l0,2l0,2l1,1l0,1l0,2l0,1l0,2l1,2l0,1l0,1l0,2l0,1l1,8l0,3l0,2l0,2l0,2l0,2l1,1l0,2l0,2l0,2l0,2l1,1l0,2l0,2l0,2l0,2l1,2l0,2l0,1l0,2l0,2l1,1l0,2l0,2l0,1l0,2l1,2l0,3l0,1l0,2l0,1l1,2l0,2l0,1l0,2l0,2l1,1l0,1l0,2l0,1l0,1l1,2l0,2l0,1l0,1l0,2l1,1l0,2l0,2l0,1l0,1l1,0l0,1l0,2l0,1l0,1l1,1l0,1l0,1l0,2l0,1l1,1l0,1l0,1l0,1l1,1l0,1l0,1l0,1l0,1l1,1l0,1l0,1l0,1l1,0l0,1l0,1l1,0l0,1l0,1l0,1l1,0l0,1l0,1l0,-4l1,-1l0,1l1,0l0,1l0,-1l1,0l0,1l0,-1l1,-1l0,-1l0,1l1,-1l0,1l1,-1l0,-1l1,0l0,-1l0,-1l0,-1l1,0l0,-1l0,-1l0,-1l1,-1l0,-1l0,-1l0,-1l1,0l0,-1l0,-1l0,-1l0,-1l1,0l0,-1l0,-1l0,-1l1,-1l0,-1l0,-1l1,-2l0,-1l0,-1l0,-1l0,-2l1,-1l0,-1l0,-1l0,-1l0,-1l1,0l0,-2l0,-1l0,-1l1,-2l0,-1l0,-2l0,-2l1,-1l0,-1l0,-1l0,-2l0,-1l1,-1l0,-2l0,-2l0,-2l0,-2l1,-2l0,-2l0,-2l0,-2l0,-2l1,-2l0,-2l0,-1l0,-1l0,-1l1,-2l0,-1l0,-1l0,-1l0,-2l1,-2l0,-1l0,-2l0,-2l0,-2l1,-1l0,-2l0,-2l0,-1l0,-1l1,-2l0,-1l0,-2l0,-1l0,-2l1,-2l0,-2l0,-1l0,-2l0,-2l0,-1l1,-1l0,-1l0,-1l0,-2l0,-2l1,-1l0,-1l0,-1l0,-2l0,-1l1,-1l0,-1l0,-2l0,-1l0,-1l1,-1l0,-2l0,-1l0,-1l0,-1l1,-1l0,-1l0,-1l0,-1l1,0l0,-1l0,-1l0,-1l0,-1l1,-1l0,-1l0,-1l1,-1l0,-1l0,-1l1,-1l0,-1l0,-1l1,0l0,-1l0,-2l1,-1l0,1l0,-1l0,-1l1,0l0,-1l1,0l0,-1l1,0l1,0l0,-1l1,0l0,1l1,1l1,0l0,1l0,-1l1,0l0,1l0,1l0,1l0,5l1,0l0,1l0,1l0,1l1,0l0,1l0,1l0,1l1,1l0,1l0,1l0,1l0,1l1,1l0,1l0,1l0,1l0,2l1,1l0,1l0,1l0,1l0,2l1,2l0,1l0,1l0,2l0,1l1,2l0,2l0,1l0,1l0,2l1,1l0,8l0,3l0,2l0,2l1,2l0,2l0,1l0,2l0,2l1,2l0,2l0,1l0,2l0,2l1,2l0,2l0,2l0,2l0,1l1,2l0,2l0,1l0,2l0,2l1,1l0,2l0,2l0,3l0,1l1,2l0,1l0,2l0,2l0,1l1,2l0,2l0,1l0,1l0,2l1,1l0,1l0,2l0,2l0,1l1,1l0,2l0,1l0,2l0,2l1,1l0,1l0,1l0,2l1,1l0,1l0,1l0,1l0,1l1,2l0,1l0,1l0,1l0,1l1,1l0,1l0,1l0,1l1,1l0,1l0,1l0,1l0,1l1,0l0,1l0,1l1,1l0,1l0,1l1,1l0,1l0,1l1,-4l0,-1l0,1l1,0l0,1l1,-1l0,1l0,-1l1,0l0,-1l1,-1l0,1l0,-1l0,1l1,0l0,-1l1,0l0,-1l0,-1l0,-1l1,0l0,-1l0,-1l1,-1l0,-1l0,-1l0,-1l1,-1l0,-1l0,-1l0,-1l1,-1l0,-1l0,-1l1,-1l0,-1l0,-1l0,-1l1,0l0,-1l0,-2l0,-1l0,-1l1,-1l0,-2l0,-1l0,-1l0,-1l1,-1l0,-1l0,-2l1,-1l0,-1l0,-2l0,-1l1,-2l0,-2l0,-1l0,-1l0,-1l0,-2l1,-1l0,-1l0,-2l0,-2l0,-2l1,-2l0,-2l0,-2l0,-2l0,-2l1,-2l0,-2l0,-2l0,-1l0,-1l1,-1l0,-2l0,-1l0,-1l0,-1l1,-2l0,-2l0,-1l0,-2l0,-2l1,-2l0,-1l0,-2l0,-2l0,-1l1,-1l0,-2l0,-1l0,-2l0,-1l1,-2l0,-2l0,-2l0,-1l0,-2l1,-2l0,-1l0,-1l0,-1l0,-1l1,-2l0,-2l0,-1l0,-1l0,-1l1,-2l0,-1l0,-1l0,-1l0,-2l1,-1l0,-1l0,-1l0,-2l0,-1l1,-1l0,-1l0,-1l0,-1l0,-1l1,-1l0,-1l0,-1l1,-1l0,-1l0,-1l0,-1l1,-1l0,-1l0,-1l1,-1l0,-1l0,-1l1,-1l0,-1l1,-2l0,-1l0,1l1,-1l0,-1l1,0l0,-1l1,-1l1,0l0,-1l1,0l1,1l0,1l1,0l0,1l1,-1l0,1l0,1l0,1l1,5l0,1l0,1l1,0l0,1l0,1l0,1l1,0l0,1l0,1l0,1l0,1l1,1l0,1l0,1l0,1l0,1l1,1l0,2l0,1l0,1l0,1l1,1l0,2l0,2l0,1l0,1l1,2l0,1l0,2l0,2l0,1l1,1l0,2l0,1l0,8l0,3l1,2l0,2l0,2l0,2l0,1l1,2l0,2l0,2l0,2l0,1l1,2l0,2l0,2l0,2l0,2l1,2l0,1l0,2l0,2l0,1l1,2l0,2l0,1l0,2l0,2l1,3l0,1l0,2l0,1l0,2l1,2l0,1l0,2l0,2l0,1l0,1l1,2l0,1l0,1l0,2l0,2l1,1l0,1l0,2l0,1l0,2l1,2l0,1l0,1l0,1l1,2l0,1l0,1l0,1l0,1l1,1l0,2l0,1l0,1l0,1l1,1l0,1l0,1l0,1l1,1l0,1l0,1l0,1l0,1l1,1l0,1l0,1l1,0l0,1l0,1l1,0l0,1l0,1l0,1l1,0l0,1l0,-4l0,-1l0,1l1,0l1,1l0,-1l0,1l1,-1l0,-1l1,0l0,-1l0,1l0,-1l1,0l0,1l0,-1l1,0l0,-1l1,-1l0,-1l0,-1l1,0l0,-1l0,-1l0,-1l0,-1l1,0l0,-1l0,-1l0,-1l1,-1l0,-1l0,-1l0,-1l1,-1l0,-1l0,-1l0,-1l1,-1l0,-1l0,-2l0,-1l1,-1l0,-1l0,-2l0,-1l0,-1l1,-1l0,-1l0,-1l0,-2l1,0l0,-1l0,-1l0,-2l1,-1l0,-2l0,-2l0,-1l0,-1l1,-1l0,-2l0,-1l0,-1l0,-2l1,-2l0,-2l0,-2l0,-2l0,-2l1,-2l0,-2l0,-2l0,-2l0,-2l1,-1l0,-1l0,-1l0,-2l0,-1l1,-1l0,-1l0,-2l0,-2l0,-1l1,-2l0,-2l0,-2l0,-1l0,-2l1,-2l0,-1l0,-1l0,-2l0,-1l1,-2l0,-1l0,-2l0,-2l0,-2l1,-1l0,-2l0,-2l0,-1l0,-1l1,-1l0,-1l0,-2l0,-2l0,-1l1,-1l0,-1l0,-2l0,-1l0,-1l1,-1l0,-2l0,-1l0,-1l0,-1l1,-2l0,-1l0,-1l0,-1l0,-1l1,-1l0,-1l0,-1l1,-1l0,-1l0,-1l0,-1l0,-1l0,-1l1,0l0,-1l0,-1l1,-1l0,-1l0,-1l0,-1l1,0l0,-1l0,-1l1,0l0,-2l0,-1l0,1l1,0l0,-1l0,-1l1,0l0,-1l1,0l0,-1l1,0l0,-1l1,0l1,0l0,1l0,1l1,0l1,0l0,1l0,-1l0,1l1,1l0,1l0,5l0,1l1,0l0,1l0,1l1,1l0,1l0,1l0,1l1,1l0,1l0,1l0,1l0,1l1,1l0,1l0,1l0,2l0,1l1,1l0,1l0,1l0,2l0,2l1,1l0,1l0,2l0,1l0,2l1,2l0,1l0,1l0,2l0,1l0,8l1,3l0,2l0,2l0,2l0,2l1,1l0,2l0,2l0,2l0,2l1,1l0,2l0,2l0,2l0,2l1,2l0,2l0,1l0,2l0,2l1,1l0,2l0,2l0,1l0,2l1,2l0,3l0,1l0,2l0,1l1,2l0,2l0,1l0,2l0,2l1,1l0,1l0,2l0,1l0,1l1,2l0,2l0,1l0,1l0,2l1,1l0,2l0,2l0,1l0,1l1,0l0,1l0,2l0,1l0,1l1,1l0,1l0,1l0,2l0,1l1,1l0,1l0,1l0,1l1,1l0,1l0,1l0,1l0,1l1,1l0,1l0,1l0,1l1,0l0,1l0,1l1,0l0,1l0,1l0,1l1,0l0,1l0,1l0,-4l1,-1l0,1l1,0l0,1l0,-1l1,0l0,1l0,-1l1,-1l0,-1l0,1l1,-1l0,1l1,-1l0,-1l1,0l0,-1l0,-1l0,-1l1,0l0,-1l0,-1l0,-1l1,-1l0,-1l0,-1l0,-1l1,0l0,-1l0,-1l0,-1l0,-1l1,0l0,-1l0,-1l0,-1l1,-1l0,-1l0,-1l1,-2l0,-1l0,-1l0,-1l0,-2l1,-1l0,-1l0,-1l0,-1l0,-1l1,0l0,-2l0,-1l0,-1l1,-2l0,-1l0,-2l0,-2l1,-1l0,-1l0,-1l0,-2l0,-1l1,-1l0,-2l0,-2l0,-2l0,-2l1,-2l0,-2l0,-2l0,-2l0,-2l1,-2l0,-2l0,-1l0,-1l0,-1l1,-2l0,-1l0,-1l0,-1l0,-2l1,-2l0,-1l0,-2l0,-2l0,-2l1,-1l0,-2l0,-2l0,-1l0,-1l1,-2l0,-1l0,-2l0,-1l0,-2l0,-2l1,-2l0,-1l0,-2l0,-2l0,-1l1,-1l0,-1l0,-1l0,-2l0,-2l1,-1l0,-1l0,-1l0,-2l0,-1l1,-1l0,-1l0,-2l0,-1l0,-1l1,-1l0,-2l0,-1l0,-1l0,-1l1,-1l0,-1l0,-1l0,-1l1,0l0,-1l0,-1l0,-1l0,-1l1,-1l0,-1l0,-1l1,-1l0,-1l0,-1l1,-1l0,-1l0,-1l1,0l0,-1l0,-2l1,-1l0,1l0,-1l0,-1l1,0l0,-1l1,0l0,-1l1,0l1,0l0,-1l1,0l0,1l1,1l1,0l0,1l0,-1l1,0l0,1l0,1l0,1l0,5l1,0l0,1l0,1l0,1l1,0l0,1l0,1l0,1l1,1l0,1l0,1l0,1l0,1l1,1l0,1l0,1l0,1l0,2l1,1l0,1l0,1l0,1l0,2l1,2l0,1l0,1l0,2l0,1l1,2l0,2l0,1l0,1l0,2l1,1l0,8l0,3l0,2l0,2l1,2l0,2l0,1l0,2l0,2l1,2l0,2l0,1l0,2l0,2l1,2l0,2l0,2l0,2l0,1l1,2l0,2l0,1l0,2l0,2l1,1l0,2l0,2l0,3l0,1l1,2l0,1l0,2l0,2l0,1l1,2l0,2l0,1l0,1l0,2l1,1l0,1l0,2l0,2l0,1l1,1l0,2l0,1l0,2l0,2l1,1l0,1l0,1l0,2l1,1l0,1l0,1l0,1l0,1l1,2l0,1l0,1l0,1l0,1l1,1l0,1l0,1l0,1l0,1l1,1l0,1l0,1l0,1l1,1l0,1l1,1l0,1l0,1l1,1l0,1l0,1l1,-4l0,-1l0,1l1,0l0,1l1,-1l0,1l0,-1l1,0l0,-1l1,-1l0,1l0,-1l0,1l1,0l0,-1l1,0l0,-1l0,-1l0,-1l1,0l0,-1l0,-1l1,-1l0,-1l0,-1l0,-1l1,-1l0,-1l0,-1l0,-1l1,-1l0,-1l0,-1l1,-1l0,-1l0,-1l0,-1l1,0l0,-1l0,-2l0,-1l0,-1l1,-1l0,-2l0,-1l0,-1l0,-1l1,-1l0,-1l0,-2l1,-1l0,-1l0,-2l0,-1l1,-2l0,-2l0,-1l0,-1l0,-1l0,-2l1,-1l0,-1l0,-2l0,-2l0,-2l1,-2l0,-2l0,-2l0,-2l0,-2l1,-2l0,-2l0,-2l0,-1l0,-1l1,-1l0,-2l0,-1l0,-1l0,-1l1,-2l0,-2l0,-1l0,-2l0,-2l1,-2l0,-1l0,-2l0,-2l0,-1l1,-1l0,-2l0,-1l0,-2l0,-1l1,-2l0,-2l0,-2l0,-1l0,-2l1,-2l0,-1l0,-1l0,-1l0,-1l1,-2l0,-2l0,-1l0,-1l0,-1l1,-2l0,-1l0,-1l0,-1l0,-2l1,-1l0,-1l0,-1l0,-2l0,-1l1,-1l0,-1l0,-1l0,-1l0,-1l1,-1l0,-1l0,-1l1,-1l0,-1l0,-1l0,-1l1,-1l0,-1l0,-1l1,-1l0,-1l0,-1l1,-1l0,-1l1,-2l0,-1l0,1l1,-1l0,-1l1,0l0,-1l0,-1l1,0l1,0l0,-1l1,0l1,1l0,1l1,0l0,1l1,-1l0,1l0,1l0,1l1,5l0,1l0,1l1,0l0,1l0,1l0,1l1,0l0,1l0,1l0,1l0,1l1,1l0,1l0,1l0,1l0,1l1,1l0,2l0,1l0,1l0,1l1,1l0,2l0,2l0,1l0,1l1,2l0,1l0,2l0,2l0,1l1,1l0,2l0,1l0,8l0,3l1,2l0,2l0,2l0,2l0,1l1,2l0,2l0,2l0,2l0,1l1,2l0,2l0,2l0,2l0,2l1,2l0,1l0,2l0,2l0,1l1,2l0,2l0,1l0,2l0,2l1,3l0,1l0,2l0,1l0,2l0,2l1,1l0,2l0,2l0,1l0,1l1,2l0,1l0,1l0,2l0,2l1,1l0,1l0,2l0,1l0,2l1,2l0,1l0,1l0,1l1,2l0,1l0,1l0,1l0,1l1,1l0,2l0,1l0,1l0,1l1,1l0,1l0,1l0,1l1,1l0,1l0,1l0,1l0,1l1,1l0,1l0,1l1,0l0,1l0,1l1,0l0,1l0,1l0,1l1,0l0,1l0,-4l0,-1l0,1l1,0l1,1l0,-1l0,1l1,-1l0,-1l1,0l0,-1l0,1l0,-1l1,0l0,1l0,-1l1,0l0,-1l1,-1l0,-1l0,-1l1,0l0,-1l0,-1l0,-1l0,-1l1,0l0,-1l0,-1l0,-1l1,-1l0,-1l0,-1l0,-1l1,-1l0,-1l0,-1l0,-1l1,-1l0,-1l0,-2l0,-1l1,-1l0,-1l0,-2l0,-1l0,-1l1,-1l0,-1l0,-1l0,-2l1,0l0,-1l0,-1l0,-2l1,-1l0,-2l0,-2l0,-1l0,-1l1,-1l0,-2l0,-1l0,-1l0,-2l1,-2l0,-2l0,-2l0,-2l0,-2l1,-2l0,-2l0,-2l0,-2l0,-2l1,-1l0,-1l0,-1l0,-2l0,-1l1,-1l0,-1l0,-2l0,-2l0,-1l1,-2l0,-2l0,-2l0,-1l0,-2l1,-2l0,-1l0,-1l0,-2l0,-1l1,-2l0,-1l0,-2l0,-2l0,-2l1,-1l0,-2l0,-2l0,-1l0,-1l1,-1l0,-1l0,-2l0,-2l0,-1l1,-1l0,-1l0,-2l0,-1l0,-1l1,-1l0,-2l0,-1l0,-1l0,-1l1,-2l0,-1l0,-1l0,-1l0,-1l1,-1l0,-1l0,-1l0,-1l1,-1l0,-1l0,-1l0,-1l0,-1l1,0l0,-1l0,-1l1,-1l0,-1l0,-1l0,-1l1,0l0,-1l0,-1l1,0l0,-2l0,-1l0,1l1,0l0,-1l0,-1l1,0l0,-1l1,0l0,-1l1,0l0,-1l1,0l1,0l0,1l0,1l1,0l1,0l0,1l0,-1l0,1l1,1l0,1l0,5l0,1l1,0l0,1l0,1l1,1l0,1l0,1l0,1l1,1l0,1l0,1l0,1l0,1l1,1l0,1l0,1l0,2l0,1l1,1l0,1l0,1l0,2l0,2l1,1l0,1l0,2l0,1l0,2l1,2l0,1l0,1l0,2l0,1l0,8l1,3l0,2l0,2l0,2l0,2l1,1l0,2l0,2l0,2l0,2l1,1l0,2l0,2l0,2l0,2l1,2l0,2l0,1l0,2l0,2l1,1l0,2l0,2l0,1l0,2l1,2l0,3l0,1l0,2l0,1l1,2l0,2l0,1l0,2l0,2l1,1l0,1l0,2l0,1l0,1l1,2l0,2l0,1l0,1l0,2l1,1l0,2l0,2l0,1l0,1l1,0l0,1l0,2l0,1l0,1l1,1l0,1l0,1l0,2l0,1l1,1l0,1l0,1l0,1l1,1l0,1l0,1l0,1l0,1l1,1l0,1l0,1l0,1l1,0l0,1l0,1l1,0l0,1l0,1l0,1l1,0l0,1l0,1l0,-4l1,-1l0,1l1,0l0,1l0,-1l1,0l0,1l0,-1l0,-1l1,0l0,-1l0,1l1,-1l0,1l1,-1l0,-1l1,0l0,-1l0,-1l0,-1l1,0l0,-1l0,-1l0,-1l1,-1l0,-1l0,-1l0,-1l1,0l0,-1l0,-1l0,-1l0,-1l1,0l0,-1l0,-1l0,-1l1,-1l0,-1l0,-1l1,-2l0,-1l0,-1l0,-1l0,-2l1,-1l0,-1l0,-1l0,-1l0,-1l1,0l0,-2l0,-1l0,-1l1,-2l0,-1l0,-2l0,-2l1,-1l0,-1l0,-1l0,-2l0,-1l1,-1l0,-2l0,-2l0,-2l0,-2l1,-2l0,-2l0,-2l0,-2l0,-2l1,-2l0,-2l0,-1l0,-1l0,-1l1,-2l0,-1l0,-1l0,-1l0,-2l1,-2l0,-1l0,-2l0,-2l0,-2l1,-1l0,-2l0,-2l0,-1l0,-1l0,-2l1,-1l0,-2l0,-1l0,-2l0,-2l1,-2l0,-1l0,-2l0,-2l0,-1l1,-1l0,-1l0,-1l0,-2l0,-2l1,-1l0,-1l0,-1l0,-2l0,-1l1,-1l0,-1l0,-2l0,-1l0,-1l1,-1l0,-2l0,-1l0,-1l0,-1l1,-1l0,-1l0,-1l0,-1l1,0l0,-1l0,-1l0,-1l0,-1l1,-1l0,-1l0,-1l1,-1l0,-1l0,-1l1,-1l0,-1l0,-1l1,0l0,-1l0,-2l1,-1l0,1l0,-1l0,-1l1,0l0,-1l1,0l0,-1l1,0l1,0l0,-1l1,0l0,1l1,1l1,0l0,1l0,-1l1,0l0,1l0,1l0,1l0,5l1,1l0,1l0,1l1,0l0,1l0,1l0,1l1,1l0,1l0,1l0,1l0,1l1,1l0,1l0,1l0,1l0,2l1,1l0,1l0,1l0,1l0,2l1,2l0,1l0,1l0,2l0,1l1,2l0,2l0,1l0,1l0,2l1,1l0,8l0,3l0,2l0,2l1,2l0,2l0,1l0,2l0,2l1,2l0,2l0,1l0,2l0,2l1,2l0,2l0,2l0,2l0,1l1,2l0,2l0,1l0,2l0,2l1,1l0,2l0,2l0,3l0,1l1,2l0,1l0,2l0,2l0,1l1,2l0,2l0,1l0,1l0,2l1,1l0,1l0,2l0,2l0,1l1,1l0,2l0,1l0,2l0,2l1,1l0,1l0,1l0,2l1,1l0,1l0,1l0,1l0,1l1,2l0,1l0,1l0,1l0,1l0,1l1,0l0,1l0,1l0,1l0,1l1,1l0,1l0,1l0,1l1,1l0,1l1,1l0,1l0,1l1,1l0,1l0,1l1,-4l0,-1l0,1l1,0l0,1l1,-1l0,1l0,-1l1,0l0,-1l1,-1l0,1l0,-1l0,1l1,0l0,-1l1,0l0,-1l0,-1l0,-1l1,0l0,-1l0,-1l1,-1l0,-1l0,-1l0,-1l1,-1l0,-1l0,-1l0,-1l1,-1l0,-1l0,-1l1,-1l0,-1l0,-1l0,-1l1,0l0,-1l0,-2l0,-1l0,-1l1,-1l0,-2l0,-1l0,-1l0,-1l1,-1l0,-1l0,-2l1,-1l0,-1l0,-2l0,-1l1,-2l0,-2l0,-1l0,-1l0,-1l0,-2l1,-1l0,-1l0,-2l0,-2l0,-2l1,-2l0,-2l0,-2l0,-2l0,-2l1,-2l0,-2l0,-2l0,-1l0,-1l1,-1l0,-2l0,-1l0,-1l0,-1l1,-2l0,-2l0,-1l0,-2l0,-2l1,-2l0,-1l0,-2l0,-2l0,-1l1,-1l0,-2l0,-1l0,-2l0,-1l1,-2l0,-2l0,-2l0,-1l0,-2l1,-2l0,-1l0,-1l0,-1l0,-1l1,-2l0,-2l0,-1l0,-1l0,-1l1,-2l0,-1l0,-1l0,-1l0,-2l1,-1l0,-1l0,-1l0,-2l0,-1l1,-1l0,-1l0,-1l0,-1l0,-1l1,-1l0,-1l0,-1l1,-1l0,-1l0,-1l0,-1l1,-1l0,-1l0,-1l1,-1l0,-1l0,-1l1,-1l0,-1l1,-2l0,-1l0,1l1,-1l0,-1l1,-1l0,-1l1,0l1,0l0,-1l1,0l1,1l0,1l1,0l0,1l1,-1l0,1l0,1l0,1l1,5l0,1l0,1l1,0l0,1l0,1l0,1l1,0l0,1l0,1l0,1l0,1l1,1l0,1l0,1l0,1l0,1l1,1l0,2l0,1l0,1l0,1l1,1l0,2l0,2l0,1l0,1l1,2l0,1l0,2l0,2l0,1l1,1l0,2l0,1l0,8l0,3l1,2l0,2l0,2l0,2l0,1l1,2l0,2l0,2l0,2l0,1l1,2l0,2l0,2l0,2l0,2l1,2l0,1l0,2l0,2l0,1l1,2l0,2l0,1l0,2l0,2l1,3l0,1l0,2l0,1l0,2l0,2l1,1l0,2l0,2l0,1l0,1l1,2l0,1l0,1l0,2l0,2l1,1l0,1l0,2l0,1l0,2l1,2l0,1l0,1l0,1l1,2l0,1l0,1l0,1l0,1l1,1l0,2l0,1l0,1l0,1l1,1l0,1l0,1l0,1l1,1l0,1l0,1l0,1l0,1l1,1l0,1l0,1l1,0l0,1l0,1l1,0l0,1l0,1l0,1l1,0l0,1l0,-4l0,-1l0,1l1,0l1,1l0,-1l0,1l1,-1l0,-1l1,0l0,-1l0,1l0,-1l1,0l0,1l0,-1l1,0l0,-1l1,-1l0,-1l0,-1l1,0l0,-1l0,-1l0,-1l0,-1l1,0l0,-1l0,-1l0,-1l0,-1l1,-1l0,-1l0,-1l1,-1l0,-1l0,-1l0,-1l1,-1l0,-1l0,-2l0,-1l1,-1l0,-1l0,-2l0,-1l0,-1l1,-1l0,-1l0,-1l0,-2l1,0l0,-1l0,-1l0,-2l1,-1l0,-2l0,-2l0,-1l0,-1l1,-1l0,-2l0,-1l0,-1l0,-2l1,-2l0,-2l0,-2l0,-2l0,-2l1,-2l0,-2l0,-2l0,-2l0,-2l1,-1l0,-1l0,-1l0,-2l0,-1l1,-1l0,-1l0,-2l0,-2l0,-1l1,-2l0,-2l0,-2l0,-1l0,-2l1,-2l0,-1l0,-1l0,-2l0,-1l1,-2l0,-1l0,-2l0,-2l0,-2l1,-1l0,-2l0,-2l0,-1l0,-1l1,-1l0,-1l0,-2l0,-2l0,-1l1,-1l0,-1l0,-2l0,-1l0,-1l1,-1l0,-2l0,-1l0,-1l0,-1l1,-2l0,-1l0,-1l0,-1l0,-1l0,-1l1,-1l0,-1l0,-1l1,-1l0,-1l0,-1l0,-1l0,-1l1,0l0,-1l0,-1l1,-1l0,-1l0,-1l0,-1l1,0l0,-1l0,-1l1,0l0,-2l0,-1l0,1l1,0l0,-1l0,-1l1,0l0,-1l1,0l0,-1l1,0l0,-1l1,0l1,0l0,1l0,1l1,0l1,0l0,1l0,-1l0,1l1,1l0,1l0,5l0,1l1,0l0,1l0,1l1,1l0,1l0,1l0,1l1,1l0,1l0,1l0,1l0,1l1,1l0,1l0,1l0,2l0,1l1,1l0,1l0,1l0,2l0,2l1,1l0,1l0,2l0,1l0,2l0,2l1,1l0,1l0,2l0,1l0,8l1,3l0,2l0,2l0,2l0,2l1,1l0,2l0,2l0,2l0,2l1,1l0,2l0,2l0,2l0,2l1,2l0,2l0,1l0,2l0,2l1,1l0,2l0,2l0,1l0,2l1,2l0,3l0,1l0,2l0,1l1,2l0,2l0,1l0,2l0,2l1,1l0,1l0,2l0,1l0,1l1,2l0,2l0,1l0,1l0,2l1,1l0,2l0,2l0,1l0,1l1,0l0,1l0,2l0,1l0,1l1,1l0,1l0,1l0,2l0,1l1,1l0,1l0,1l0,1l1,1l0,1l0,1l0,1l0,1l1,1l0,1l0,1l0,1l1,0l0,1l0,1l1,0l0,1l0,1l0,1l1,0l0,1l0,1l0,-4l1,-1l0,1l1,0l0,1l0,-1l1,1l0,-1l0,-1l1,0l0,-1l0,1l1,-1l0,1l1,-1l0,-1l1,0l0,-1l0,-1l0,-1l1,0l0,-1l0,-1l0,-1l1,-1l0,-1l0,-1l0,-1l1,0l0,-1l0,-1l0,-1l0,-1l1,0l0,-1l0,-1l0,-1l1,-1l0,-1l0,-1l1,-2l0,-1l0,-1l0,-1l0,-2l1,-1l0,-1l0,-1l0,-1l0,-1l1,0l0,-2l0,-1l0,-1l1,-2l0,-1l0,-2l0,-2l1,-1l0,-1l0,-1l0,-2l0,-1l1,-1l0,-2l0,-2l0,-2l0,-2l1,-2l0,-2l0,-2l0,-2l0,-2l1,-2l0,-2l0,-1l0,-1l0,-1l1,-2l0,-1l0,-1l0,-1l0,-2l1,-2l0,-1l0,-2l0,-2l0,-2l1,-1l0,-2l0,-2l0,-1l0,-1l0,-2l1,-1l0,-2l0,-1l0,-2l0,-2l1,-2l0,-1l0,-2l0,-2l0,-1l1,-1l0,-1l0,-1l0,-2l0,-2l1,-1l0,-1l0,-1l0,-2l0,-1l1,-1l0,-1l0,-2l0,-1l0,-1l1,-1l0,-2l0,-1l0,-1l0,-1l1,-1l0,-1l0,-1l0,-1l1,0l0,-1l0,-1l0,-1l0,-1l1,-1l0,-1l0,-1l1,-1l0,-1l0,-1l1,-1l0,-1l0,-1l1,0l0,-1l0,-2l1,-1l0,1l0,-1l0,-1l1,0l0,-1l1,0l0,-1l1,0l1,0l0,-1l1,0l0,1l1,1l1,0l0,1l0,-1l1,1l0,1l0,1l0,5l1,1l0,1l0,1l1,0l0,1l0,1l0,1l1,1l0,1l0,1l0,1l0,1l1,1l0,1l0,1l0,1l0,2l1,1l0,1l0,1l0,1l0,2l1,2l0,1l0,1l0,2l0,1l1,2l0,2l0,1l0,1l0,2l1,1l0,8l0,3l0,2l0,2l1,2l0,2l0,1l0,2l0,2l1,2l0,2l0,1l0,2l0,2l1,2l0,2l0,2l0,2l0,1l1,2l0,2l0,1l0,2l0,2l1,1l0,2l0,2l0,3l0,1l1,2l0,1l0,2l0,2l0,1l1,2l0,2l0,1l0,1l0,2l1,1l0,1l0,2l0,2l0,1l1,1l0,2l0,1l0,2l0,2l1,1l0,1l0,1l0,2l1,1l0,1l0,1l0,1l0,1l1,2l0,1l0,1l0,1l0,1l0,1l1,0l0,1l0,1l0,1l0,1l1,1l0,1l0,1l0,1l1,1l0,1l1,1l0,1l0,1l1,1l0,1l0,1l1,-4l0,-1l0,1l1,0l0,1l1,-1l0,1l0,-1l1,0l0,-1l1,-1l0,1l0,-1l0,1l1,0l0,-1l1,0l0,-1l0,-1l0,-1l1,0l0,-1l0,-1l1,-1l0,-1l0,-1l0,-1l1,-1l0,-1l0,-1l0,-1l1,-1l0,-1l0,-1l1,-1l0,-1l0,-1l0,-1l1,0l0,-1l0,-2l0,-1l0,-1l1,-1l0,-2l0,-1l0,-1l0,-1l1,-1l0,-1l0,-2l1,-1l0,-1l0,-2l0,-1l0,-2l1,-2l0,-1l0,-1l0,-1l0,-2l1,-1l0,-1l0,-2l0,-2l0,-2l1,-2l0,-2l0,-2l0,-2l0,-2l1,-2l0,-2l0,-2l0,-1l0,-1l1,-1l0,-2l0,-1l0,-1l0,-1l1,-2l0,-2l0,-1l0,-2l0,-2l1,-2l0,-1l0,-2l0,-2l0,-1l1,-1l0,-2l0,-1l0,-2l0,-1l1,-2l0,-2l0,-2l0,-1l0,-2l1,-2l0,-1l0,-1l0,-1l0,-1l1,-2l0,-2l0,-1l0,-1l0,-1l1,-2l0,-1l0,-1l0,-1l0,-2l1,-1l0,-1l0,-1l0,-2l0,-1l1,-1l0,-1l0,-1l0,-1l0,-1l1,-1l0,-1l0,-1l1,-1l0,-1l0,-1l0,-1l1,-1l0,-1l0,-1l1,-1l0,-1l0,-1l1,-1l0,-1l1,-2l0,-1l0,1l0,-1l1,-1l1,-1l0,-1l1,0l1,0l0,-1l1,0l1,1l0,1l1,0l0,1l1,-1l0,1l0,1l0,1l1,5l0,1l0,1l1,0l0,1l0,1l0,1l1,0l0,1l0,1l0,1l0,1l1,1l0,1l0,1l0,1l0,1l1,1l0,2l0,1l0,1l0,1l1,1l0,2l0,2l0,1l0,1l1,2l0,1l0,2l0,2l0,1l1,1l0,2l0,1l0,8l0,3l1,2l0,2l0,2l0,2l0,1l1,2l0,2l0,2l0,2l0,1l1,2l0,2l0,2l0,2l0,2l1,2l0,1l0,2l0,2l0,1l1,2l0,2l0,1l0,2l0,2l1,3l0,1l0,2l0,1l0,2l0,2l1,1l0,2l0,2l0,1l0,1l1,2l0,1l0,1l0,2l0,2l1,1l0,1l0,2l0,1l0,2l1,2l0,1l0,1l0,1l1,2l0,1l0,1l0,1l0,1l1,1l0,2l0,1l0,1l0,1l1,1l0,1l0,1l0,1l1,1l0,1l0,1l0,1l0,1l1,1l0,1l0,1l1,0l0,1l0,1l1,0l0,1l0,1l0,1l1,0l0,1l0,-4l0,-1l0,1l1,0l1,1l0,-1l0,1l1,-1l0,-1l1,0l0,-1l0,1l0,-1l1,0l0,1l0,-1l1,0l0,-1l1,-1l0,-1l0,-1l1,-1l0,-1l0,-1l0,-1l1,-1l0,-1l0,-1l0,-1l1,-1l0,-1l0,-1l1,-1l0,-1l0,-1l0,-1l1,-1l0,-1l0,-2l0,-1l1,-1l0,-1l0,-2l0,-1l0,-1l1,-1l0,-1l0,-1l0,-2l1,0l0,-1l0,-1l0,-2l1,-1l0,-2l0,-2l0,-1l0,-1l1,-1l0,-2l0,-1l0,-1l0,-2l1,-2l0,-2l0,-2l0,-2l0,-2l1,-2l0,-2l0,-2l0,-2l0,-2" class="g2_1" />
</g>
<path d="M73,633l1181,0l0,-187L73,446l0,187" class="g2_1" />
<path d="M73,603L73,477" class="g2_1" />
<path d="M73,603l-7,0" class="g2_1" />
<path d="M73,571l-7,0" class="g2_1" />
<path d="M73,540l-7,0" class="g2_1" />
<path d="M73,508l-7,0" class="g2_1" />
<path d="M73,477l-7,0" class="g2_1" />
<text 
transform="matrix(0, -1, 1, 0, 56, 632)"
textLength="57" 
class="s1_1"
>-2e+06</text>

<text 
transform="matrix(0, -1, 1, 0, 56, 532)"
textLength="47" 
class="s1_1"
>1e+06</text>

<text 
transform="matrix(0, -1, 1, 0, 27, 589)"
textLength="97" 
class="s2_1"
>seasonal</text>

<g clip-path="url(#c3_1)">
<path d="M151,680l0,1l1,1l0,1l0,1l0,1l1,1l0,1l0,1l0,1l0,1l1,1l0,1l0,1l0,1l0,2l1,1l0,1l0,2l0,1l0,2l1,2l0,1l0,1l0,1l0,2l1,2l0,1l0,1l0,2l0,2l1,1l0,2l0,2l0,1l0,2l1,2l0,1l0,2l0,2l0,2l1,1l0,1l0,2l0,2l0,1l1,1l0,1l0,2l0,1l0,1l1,2l0,2l0,1l0,1l0,1l1,1l0,1l0,1l0,1l0,1l1,1l0,1l0,2l0,1l0,1l1,1l0,1l0,1l0,1l1,1l0,1l0,1l0,1l1,1l0,1l0,1l1,1l0,1l1,1l0,1l1,0l0,1l0,1l1,-1l0,-1l0,-1l1,0l0,-2l0,-1l1,0l0,-1l1,0l0,-1l1,0l1,0l0,-1l0,-1l1,-1l0,-1l1,0l0,-1l1,-1l0,-1l0,-1l0,-2l1,0l0,-1l0,-1l1,-1l0,-1l0,-1l0,-1l0,-1l1,-1l0,-1l0,-1l0,-1l1,-1l0,-1l0,-1l0,-1l0,-1l1,-1l0,-1l0,-1l0,-1l1,-1l0,-1l0,-1l1,-1l0,-1l0,-1l1,-1l0,-1l0,-1l1,-1l0,-1l0,-1l1,0l0,-1l0,4l0,-1l1,0l0,-1l0,-1l0,-1l1,-1l0,-1l0,-1l1,-1l0,-1l0,-1l0,-1l0,-1l1,0l0,-1l0,-1l0,-1l1,0l0,-1l0,-1l0,-1l1,-2l0,-1l0,-3l0,-1l0,-1l1,0l0,-1l0,-1l0,-1l1,-1l0,-1l0,-1l0,-1l1,0l0,-1l0,-1l0,-1l1,-1l0,-1l0,-1l0,-1l0,-1l1,0l0,-1l0,-1l0,-1l1,-1l0,-1l0,-1l0,-1l1,-1l0,-1l0,-1l0,-1l1,-4l0,-2l0,-1l0,-1l0,-1l1,-1l0,-1l0,-1l0,-1l0,-1l1,-1l0,-1l0,-1l0,-1l0,-1l1,-1l0,-1l0,-1l0,-1l0,-1l1,0l0,-1l0,-1l1,-1l0,-1l1,0l1,-1l0,1l0,-1l1,0l0,-1l1,0l1,1l1,0l1,0l0,1l1,0l0,1l0,1l1,0l0,1l0,1l1,0l0,1l1,1l0,1l1,0l0,1l0,3l1,1l0,1l0,1l1,1l0,1l0,1l0,1l0,1l1,0l0,1l0,1l0,1l0,2l1,1l0,1l0,1l0,1l0,1l0,1l1,1l0,1l0,1l0,1l0,1l1,1l0,2l0,1l0,2l0,1l1,2l0,2l0,2l0,1l0,2l1,2l0,1l0,2l0,2l0,2l1,2l0,1l0,2l0,2l0,1l1,2l0,2l0,2l0,2l0,2l1,1l0,2l0,1l0,2l0,2l1,1l0,2l0,1l0,1l0,1l1,2l0,2l0,1l0,2l0,1l1,2l0,1l0,2l0,1l0,1l1,1l0,1l0,1l0,1l0,1l1,1l0,2l0,2l0,2l1,2l0,1l0,2l0,1l1,1l0,1l0,1l0,2l0,1l1,1l0,1l0,2l0,1l0,1l1,1l0,1l0,1l1,1l1,1l1,0l1,-1l0,-1l0,-1l1,-1l0,-1l0,-1l1,-2l0,-1l0,-1l0,-1l0,-1l1,-1l0,-1l0,-1l0,-1l1,-1l0,-1l1,-1l0,-1l1,-1l0,-1l0,-1l1,0l0,-1l0,-1l1,-1l0,-1l0,-1l0,-1l1,-1l0,-1l0,-1l1,-1l0,-1l0,-1l0,-1l0,-2l1,-1l0,-1l0,-1l0,-1l1,-1l0,-2l0,-1l0,-1l0,-1l1,0l0,-1l0,-1l0,-1l0,-1l1,-1l0,-1l0,-1l0,-1l1,-1l0,-1l0,-1l0,-1l0,-1l1,-1l0,-1l0,-1l0,-1l1,0l0,-1l0,-1l0,-1l0,-1l1,8l0,-1l0,-1l0,-1l1,-1l0,-1l0,-2l1,-1l0,-1l0,-1l0,-1l0,-3l1,-1l0,-2l0,-1l0,-1l1,-1l0,-1l0,-1l0,-1l0,-1l0,-1l1,-1l0,-1l0,-1l0,-2l0,-1l1,0l0,-1l0,-1l0,-1l0,-1l1,-1l0,-1l0,-2l0,-1l0,-1l1,-1l0,-1l0,-2l0,-1l0,-1l1,-1l0,-1l0,-1l0,-1l0,-1l1,-1l0,-5l0,-2l0,-1l0,-1l1,-2l0,-1l0,-2l0,-1l0,-1l1,-1l0,-1l0,-1l0,-1l0,-1l1,-1l0,-1l0,-1l0,-1l0,-1l1,-1l0,-1l0,-1l1,-1l0,-1l0,-1l0,-1l1,-1l0,-1l0,-1l0,-1l1,-1l0,-1l1,0l0,-1l0,-1l1,0l0,-1l0,-1l1,0l0,1l1,0l0,-1l1,-1l0,1l1,0l1,1l0,1l1,0l0,1l0,1l0,1l1,1l0,1l1,0l0,1l0,1l0,1l1,3l0,1l0,1l1,1l0,1l0,1l1,1l0,1l0,1l0,1l1,1l0,1l0,1l0,1l1,1l0,1l0,1l0,1l1,1l0,1l0,1l0,2l0,1l1,1l0,2l0,1l0,1l0,2l1,2l0,1l0,1l0,2l0,2l1,1l0,2l0,2l0,2l0,1l1,2l0,2l0,2l0,1l0,2l1,2l0,2l0,1l0,2l0,2l1,1l0,2l0,2l0,2l0,1l1,2l0,2l0,2l0,2l0,2l1,1l0,2l0,2l0,2l0,2l1,2l0,1l0,2l0,1l0,2l1,1l0,2l0,1l0,1l0,2l1,1l0,2l0,1l0,2l0,1l1,1l0,1l0,2l0,1l0,2l1,1l0,2l0,1l0,1l0,2l0,1l1,2l0,1l0,1l0,1l1,1l0,1l0,1l0,1l1,0l0,1l0,1l0,1l1,1l0,1l0,1l1,1l0,1l1,-1l1,0l0,-1l0,-1l0,-1l1,0l0,-1l0,-1l0,-2l0,-1l1,-1l0,-1l0,-1l0,-1l0,-1l1,-2l0,-1l0,-2l0,-1l0,-2l1,-2l0,-1l0,-1l0,-2l0,-2l1,-2l0,-2l0,-1l0,-2l0,-1l1,-1l0,-1l0,-2l0,-1l0,-1l1,-2l0,-1l0,-1l0,-1l0,-1l1,-1l0,-1l0,-1l0,-1l1,-1l0,-1l0,-1l0,-1l0,-1l1,-1l0,-1l0,-1l0,-2l1,-1l0,-1l0,-1l0,-1l0,-1l1,-1l0,-1l0,-1l0,-2l1,-1l0,-1l0,-1l0,-2l0,-1l0,-1l1,-2l0,-1l0,-1l0,-1l0,-1l1,-2l0,-1l0,-1l0,-1l0,-1l1,-2l0,-1l0,-1l0,-1l0,-1l1,-1l0,-1l0,-1l0,-1l0,-1l1,0l0,-1l0,-1l0,-1l0,-1l1,-3l0,-1l0,34l0,1l1,0l0,2l0,1l0,1l1,1l0,2l0,2l0,1l1,1l0,1l0,1l0,1l0,2l1,0l0,2l0,2l0,2l0,1l1,1l0,1l0,1l0,1l0,1l1,1l0,1l0,1l0,2l0,1l1,2l0,1l0,-1l1,0l0,16l0,1l1,1l0,1l0,1l1,0l0,1l1,0l1,1l0,1l0,-1l1,0l0,1l1,0l0,-1l0,-1l1,0l0,-1l0,-4l0,-2l0,-1l1,-1l0,-1l0,-2l0,-2l0,-2l1,-2l0,-1l0,-1l0,-3l0,-5l1,-3l0,-1l0,-2l0,-2l0,-2l1,-1l0,-2l0,-2l0,-2l0,-1l1,-1l0,-2l0,-2l0,-1l0,-1l1,-1l0,-2l0,-2l0,-3l0,-2l1,-1l0,-1l0,-1l0,-1l1,-1l0,1l0,-1l0,-1l0,-2l1,-2l0,-1l0,-1l1,-1l0,-2l0,1l0,-1l0,-1l1,-2l0,-1l0,-2l0,-2l0,-3l1,-2l0,-1l0,1l0,-1l0,-2l1,-1l0,-1l0,-1l0,-2l0,-3l1,-1l0,-1l0,-1l0,-1l1,0l0,-1l0,-1l1,-1l0,-1l0,-2l0,-2l1,-1l0,-1l0,-1l0,-2l0,-1l1,-1l0,1l0,-1l1,-1l0,-1l0,-1l0,-1l1,0l0,-1l0,-2l0,-1l0,-1l1,-1l0,-1l0,-1l0,-1l0,-1l1,0l0,1l0,1l0,-1l1,0l0,-1l0,-1l1,-1l0,-1l0,3l1,3l0,-1l1,-1l0,1l0,1l0,-1l0,-1l1,0l0,1l0,2l0,1l0,1l1,1l0,-1l0,1l0,1l0,1l1,0l0,1l1,0l0,1l1,0l0,1l0,2l0,1l1,1l0,1l1,3l0,2l0,2l0,1l1,1l0,2l0,1l0,1l1,1l1,0l0,1l0,1l0,2l1,0l0,1l0,1l0,1l0,1l1,1l0,3l0,2l0,1l0,2l1,2l0,2l0,1l0,1l0,1l1,1l0,1l0,1l0,2l1,1l0,2l0,2l0,1l0,2l1,1l0,1l0,2l0,1l1,1l0,2l0,1l0,2l0,2l1,1l0,1l0,1l0,1l0,1l1,1l0,2l0,1l0,2l0,1l1,1l0,1l0,1l1,0l0,1l0,1l0,1l0,1l1,0l0,1l0,1l0,1l1,1l0,1l0,1l0,1l1,1l0,1l1,1l0,1l0,1l1,1l0,1l0,1l0,1l1,1l0,1l0,1l1,1l0,1l0,-1l0,1l0,1l1,1l0,1l0,1l0,1l1,0l0,2l0,1l0,1l1,1l0,1l0,1l1,1l0,1l1,2l0,1l0,1l0,1l1,0l0,1l0,2l0,1l1,1l0,1l0,1l0,-1l1,-2l0,-1l0,1l0,1l1,0l0,1l1,1l0,1l0,-1l0,-1l1,0l0,1l0,-1l1,-1l0,-1l0,-1l1,0l0,-1l0,-1l1,-1l0,-1l1,-1l0,-1l1,-1l0,-1l0,-1l1,-2l0,-2l0,1l0,-1l1,0l0,-2l0,-1l1,-1l0,-1l0,-1l0,-1l0,-1l1,-1l0,-1l0,-2l0,-2l0,-1l1,-2l0,-2l0,-1l0,-2l0,-2l1,-1l0,-1l0,-2l0,-2l1,-2l0,-3l0,-4l0,-3l0,-2l1,-2l0,-3l0,-4l0,-2l0,-2l1,-3l0,-2l0,-2l0,-1l0,2l1,-1l0,-1l0,-7l0,-1l1,-1l0,-1l0,-1l0,-1l0,-1l1,-2l0,-2l0,-1l0,-1l1,-1l0,-1l0,-1l0,-2l0,-3l1,-1l0,-2l0,-1l0,-2l0,-1l1,0l0,-3l0,-2l0,-1l1,-1l0,-2l0,-1l0,-1l0,-2l1,-1l0,-1l0,-1l0,-1l0,-2l1,-1l0,-2l1,-1l0,-2l0,-1l1,1l1,0l0,-1l0,-1l1,0l0,1l0,1l1,0l0,-1l0,-1l1,1l0,-1l1,1l0,1l1,2l0,-1l0,1l1,2l0,1l0,1l1,0l0,1l0,1l1,-1l0,-1l0,1l1,0l0,1l0,1l1,0l0,1l0,2l0,1l1,1l0,1l0,1l0,1l1,1l0,1l0,2l0,1l0,1l1,1l0,1l1,1l0,2l0,3l0,2l0,1l1,1l0,1l0,1l1,1l0,2l0,1l0,-1l1,0l0,1l0,2l0,1l0,1l1,1l0,1l0,2l0,1l1,1l0,2l0,2l0,1l0,1l1,3l0,3l0,2l0,2l0,2l1,1l0,1l0,1l0,1l0,1l1,1l0,1l0,1l1,0l0,2l0,1l0,1l1,1l0,1l0,1l0,1l0,1l1,2l0,2l0,1l0,1l1,1l0,1l0,1l0,1l1,1l0,1l0,1l0,1l1,1l0,1l0,1l0,1l1,0l0,-1l1,0l0,1l0,1l1,1l0,1l0,1l1,0l0,-2l1,0l0,1l0,1l0,1l0,1l1,0l0,1l0,1l0,1l1,1l1,-1l0,1l0,1l1,1l1,1l0,1l0,1l1,1l0,1l0,1l1,0l0,-3l0,-1l0,1l1,-1l0,1l0,2l1,0l0,1l0,1l1,0l0,1l0,1l0,1l1,1l0,1l0,1l1,0l0,1l0,-1l1,0l0,1l0,1l1,0l0,-1l1,0l0,-1l0,-1l0,-1l1,-1l0,-1l0,-1l1,0l0,-1l0,-1l1,-2l0,-1l0,-1l1,0l0,-1l0,-2l0,-1l1,-2l0,-2l0,-2l0,-2l0,-1l1,-2l0,-1l0,-2l0,-2l0,-1l1,-2l0,-1l0,-1l0,-3l0,-3l0,-1l1,-1l0,-2l0,-2l0,-3l0,-3l1,-1l0,-1l0,-1l0,-2l0,-2l1,2l0,-2l0,-1l0,-2l1,-2l0,-1l0,-1l0,-1l0,-2l1,-2l0,-1l0,-1l0,-1l1,-2l0,-3l0,-2l0,-1l1,-1l0,-1l0,-2l0,-1l0,-2l1,-1l0,-1l1,-1l0,-4l0,-1l1,-2l0,-1l0,-1l0,-1l0,-1l1,-1l0,-1l0,-2l0,-1l0,-1l1,-1l0,-1l0,-1l0,-1l1,0l0,-1l0,-1l0,-2l1,0l0,1l0,-1l1,0l0,-1l1,1l0,1l0,-1l1,1l0,1l0,-1l1,-2l0,1l0,1l1,0l0,1l0,1l1,0l0,-1l0,1l0,1l1,1l0,1l0,2l0,-1l1,1l0,1l0,1l0,-1l1,-1l0,2l0,1l1,1l0,3l0,-1l1,0l0,1l0,1l0,1l0,1l1,-1l0,-1l0,1l0,3l1,2l0,1l1,-1l0,-1l1,1l0,1l1,0l0,1l0,1l0,1l0,1l1,0l0,1l0,1l0,2l0,2l1,1l0,2l0,1l0,2l0,2l1,1l0,1l1,1l1,1l0,1l0,1l1,1l0,1l0,1l0,1l1,0l0,1l0,1l0,1l1,2l0,1l0,-1l1,1l0,1l0,1l1,1l0,1l0,1l0,1l1,1l0,1l0,1l0,1l0,1l0,1l1,0l0,1l0,1l0,2l1,1l0,1l0,1l1,-1l0,1l1,1l0,1l0,2l0,1l1,2l0,1l0,1l1,-1l0,1l0,1l0,1l0,1l1,1l0,1l0,1l1,0l1,0l0,1l0,1l0,1l1,0l0,1l0,1l1,1l0,1l1,0l0,-1l0,1l1,1l0,1l0,1l0,-2l0,-1l1,1l1,0l0,1l0,1l0,1l1,2l0,1l0,1l1,0l0,1l0,1l0,1l1,1l0,1l0,-1l1,0l0,1l0,1l1,0l0,-1l0,1l1,0l0,1l1,0l0,-1l0,-1l0,-1l1,0l0,-1l0,1l1,0l0,-1l0,-1l0,-1l1,0l0,-1l0,-1l1,0l1,-1l0,1l1,0l0,-1l0,1l0,-1l1,-2l0,-1l0,-1l0,-2l1,-2l0,-2l0,-1l0,-1l0,-2l1,-1l0,-2l0,1l0,-1l0,-2l1,-2l0,-1l0,-1l0,-3l1,-3l0,-2l0,-1l0,-1l0,-3l1,-4l0,-3l0,-5l0,-4l0,-1l1,-2l0,-2l0,-2l0,-1l0,-2l1,-3l0,-1l0,-1l0,-1l1,-2l0,-1l0,-1l1,-1l0,-1l0,-1l1,0l0,1l1,-3l0,-1l0,-2l0,-2l0,-1l1,-1l0,-1l0,-1l0,-1l0,-1l1,1l0,1l0,-1l0,-1l1,-1l0,-1l0,-1l0,-1l1,0l0,-1l0,-1l1,-2l0,-1l0,-1l1,1l0,-1l0,-1l1,0l0,-1l0,1l1,0l0,-1l1,0l0,1l0,1l0,2l0,1l1,0l0,2l0,1l1,0l0,1l0,2l0,2l0,1l1,1l0,1l0,-1l1,1l0,2l0,-1l0,-1l0,-1l1,1l0,1l0,-1l0,-1l1,-1l0,1l0,1l0,1l1,1l1,0l0,1l0,2l0,1l0,1l1,1l0,1l0,1l1,1l0,1l0,1l0,1l0,-1l1,0l0,1l0,1l1,0l0,1l0,-1l0,-1l1,0l0,1l0,1l0,2l0,1l0,2l1,2l0,1l0,1l1,0l0,1l0,1l0,2l1,0l0,1l0,1l1,0l0,1l1,1l0,1l0,1l0,2l1,0l0,1l0,1l0,-1l1,0l0,1l0,-1l0,1l1,0l0,1l0,1l1,2l0,1l0,2l0,1l0,1l1,1l0,2l0,1l0,1l1,2l0,1l1,1l0,1l1,0l0,1l0,-2l0,1l1,0l0,1l0,1l1,0l0,1l1,0l0,-1l0,1l1,0l1,0l0,1l1,0l0,1l0,-1l0,1l1,0l0,1l0,1l0,-2l1,0l0,1l0,1l1,0l0,1l1,1l0,1l0,1l1,0l0,1l0,-1l0,1l1,0l0,1l1,0l0,1l1,0l0,1l0,1l1,0l0,1l0,1l1,1l0,-1l1,1l0,-1l0,1l1,0l0,1l0,-1l0,1l1,1l0,-1l1,0l0,-1l1,0l0,-1l0,-1l1,-1l1,-1l0,-1l0,1l0,1l1,0l0,-1l0,-1l1,-1l0,-1l0,1l0,2l1,-1l0,-1l0,-2l0,1l1,1l0,-1l0,-1l0,-1l1,-2l0,-2l1,-1l0,-1l0,-1l0,-1l0,-2l0,-6l1,-3l0,-3l0,-3l0,-2l0,-1l1,-1l0,-2l0,-2l0,-1l1,-3l0,-2l0,-1l1,-1l0,-1l0,-2l0,-1l1,0l0,1l1,0l0,-1l0,-1l0,-1l1,0l0,-1l1,1l1,0l0,-1l0,1l1,-1l0,-1l0,-2l0,-2l0,-2l1,-3l0,-2l0,-1l0,-2l0,-2l1,-1l0,-1l0,1l1,1l0,-1l0,-1l0,-3l1,-2l0,1l0,1l1,0l0,1l1,0l0,-1l1,0l0,1l0,1l1,2l0,2l0,2l0,-1l1,0l0,-1l0,-1l1,-1l0,-1l1,0l0,2l0,1l0,1l1,0l0,1l0,1l1,1l0,2l1,0l0,-1l0,1l1,0l0,1l0,1l0,1l1,0l0,-1l1,0l0,1l0,1l0,1l0,1l1,0l0,1l0,-1l1,1l0,1l0,-1l1,0l0,2l0,1l0,1l1,2l0,-1l0,1l0,2l0,1l1,0l0,-2l0,1l0,-1l1,0l0,1l0,2l1,1l0,1l0,-1l1,1l0,1l0,1l1,1l0,1l0,1l0,1l1,1l0,-2l1,0l0,1l0,2l1,1l0,1l1,0l0,-1l0,1l0,-2l1,0l0,1l0,1l0,1l1,0l0,1l0,1l0,-1l1,1l0,-1l1,1l0,1l0,1l1,0l1,-1l1,0l0,-1l1,-1l0,-3l0,-2l0,1l1,0l0,1l0,1l1,0l1,1l0,1l0,1l0,1l1,2l0,1l0,1l0,2l0,1l1,1l0,1l0,1l0,1l1,1l0,1l0,2l0,1l0,1l1,1l0,1l0,1l0,1l1,1l0,1l0,1l0,1l0,1l1,1l0,1l0,1l1,1l0,1l0,1l0,1l1,1l0,2l0,1l0,1l1,1l0,1l1,1l0,1l1,1l0,1l0,1l1,0l0,1l0,1l1,0l0,1l0,-1l1,1l0,1l1,3l0,1l0,-1l1,1l0,1l0,-1l1,0l0,1l1,0l0,-1l0,-1l1,-1l0,-2l0,-1l0,-1l1,-1l0,-1l0,-1l0,-2l0,-1l1,-2l0,-1l0,1l0,-1l1,-2l0,-2l0,-1l0,-1l0,-2l1,-3l0,-4l0,-5l0,-2l0,-3l1,-2l0,-1l0,-3l0,-4l0,-3l1,-2l0,-1l0,-2l0,-2l0,-2l1,-2l0,-1l0,-1l0,-1l0,-1l1,-2l0,-1l0,-1l0,-1l1,0l0,1l0,-1l1,-1l0,-1l0,-1l0,-1l0,-1l1,0l0,1l0,-1l1,-5l0,2l0,2l0,-5l0,-1l0,-1l1,1l0,-1l0,-1l0,-1l1,0l0,-1l0,1l0,1l1,0l0,-2l0,-1l0,-1l1,-2l0,-1l0,1l0,1l1,0l0,-1l1,2l0,1l1,0l0,1l1,-1l0,1l1,1l0,1l1,0l0,-2l0,-2l1,0l0,1l1,1l0,1l1,-2l0,1l0,1l1,0l0,1l0,1l0,1l1,2l0,-1l1,0l0,-1l0,-1l0,-1l1,0l0,1l1,0l0,1l0,1l1,1l0,-1l0,1l1,0l0,1l0,1l1,1l0,1l0,1l1,-1l0,1l0,1l0,-1l1,0l0,1l0,2l0,1l1,0l0,2l1,0l0,-1l0,1l0,1l1,0l0,1l0,1l0,1l0,1l1,2l0,2l0,1l0,1l1,-2l0,1l0,1l1,0l1,0l1,0l0,1l0,1l1,1l0,1l1,0l0,1l0,1l0,1l1,0l0,-1l0,-1l0,1l1,-1l0,-1l0,-3l0,-2l1,0l0,-1l1,0l0,1l1,0l0,-1l0,-1l1,0l0,1l1,0l0,1l1,0l0,1l0,-1l0,1l0,1l1,0l0,1l0,1l0,1l1,0l0,1l1,1l0,1l0,1l0,1l1,1l0,1l0,1l0,1l0,1l1,2l0,1l0,1l0,1l0,1l1,0l0,1l0,1l0,1l1,1l0,2l0,1l0,1l1,2l0,2l0,1l1,2l0,1l0,1l0,1l1,2l0,1l0,1l0,1l0,1l1,0l0,1l0,1l0,1l1,1l0,1l0,3l0,1l0,1l1,0l0,1l0,1l0,1l1,1l0,1l0,1l1,1l0,-1l0,1l1,0l1,0l0,-1l0,-1l1,-1l0,-1l0,-1l1,0l0,-3l0,-1l0,-1l0,-2l1,-1l0,-1l0,-2l0,-2l0,-3l1,-2l0,-2l0,-2l0,-1l0,-3l1,-4l0,-2l0,-3l0,-2l0,-1l0,-2l1,-2l0,-2l0,-3l0,-1l0,-2l1,-2l0,-1l0,-1l0,-1l1,-1l0,-1l1,-1l0,-2l0,-1l0,-2l0,-1l1,0l0,-1l0,1l0,1l1,0l0,-1l1,-1l0,-1l0,1l0,-1l1,-1l0,1l1,0l1,0l0,-1l0,-1l0,-1l0,-2l1,-1l0,-2l0,1l0,1l1,2l0,1l0,1l0,2l1,0l0,-1l0,-1l1,-1l0,1l0,2l1,1l1,-1l0,-1l0,1l0,-1l1,-1l0,-1l1,0l0,-1l0,-1l0,-1l0,1l1,0l0,-1l0,1l0,1l0,1l1,1l0,1l0,-1l1,0l0,-1l0,1l1,0l0,-1l0,-1l0,-1l1,-1l0,2l0,1l1,0l0,-1l0,-1l1,-1l0,2l0,2l0,1l1,1l0,-1l0,-1l0,-2l1,-1l0,-1l0,1l1,0l0,1l0,2l0,2l1,0l0,1l1,0l0,-1l0,-1l1,1l0,-2l1,0l0,1l0,1l0,1l1,1l0,1l0,-1l1,0l0,-2l1,0l0,1l1,-1l1,-1l0,-1l0,2l1,0l0,-1l1,0l0,-1l0,-1l1,0l1,0l0,1l0,-4l1,-1l0,1l0,1l1,-1l0,1l1,1l0,-1l0,-1l1,0l1,0l0,1l0,-1l1,-1l0,-1l0,-1l1,0l0,-1l0,1l1,1l0,1l0,1l1,1l0,1l1,0l0,1l0,1l0,1l0,1l1,2l0,1l0,1l0,1l0,1l1,1l0,1l0,1l1,1l0,2l0,2l0,1l1,1l0,2l0,1l0,3l0,1l1,2l0,1l0,2l0,1l0,1l1,1l0,1l0,1l1,1l0,1l0,1l1,0l0,1l0,3l1,2l0,1l0,1l0,1l1,1l0,1l0,1l0,1l0,1l1,1l0,1l0,1l0,1l0,1l1,0l0,1l0,1l0,1l1,1l1,1l0,1l0,1l1,0l1,0l1,1l0,-1l1,0l0,-1l0,-1l1,0l0,1l0,-1l0,-1l1,0l0,-1l0,-3l0,-3l0,-1l1,0l0,-1l0,-1l0,-1l0,-1l1,-1l0,-1l0,-2l0,-2l0,-2l1,-2l0,1l0,1l0,-2l0,-2l1,-3l0,-2l0,-2l0,-1l1,-1l0,-1l0,1l0,-1l1,0l0,1l0,-1l0,-1l0,1l1,1l0,1l0,-1l0,-2l0,-1l1,-1l0,-1l1,-1l0,-2l0,-1l0,-1l0,-1l1,0l0,1l1,-1l0,-1l0,-1l0,-1l0,1l0,2l1,0l0,-1l0,1l1,-2l0,-2l0,-1l0,-1l0,-1l1,0l0,1l0,-1l1,1l0,-1l0,-1l1,-1l0,1l0,1l1,1l0,-1l1,0l0,-1l0,-1l0,-1l1,0l0,-1l1,1l0,-1l0,1l1,0l0,-1l1,1l0,1l0,-1l0,-1l1,-1l0,1l0,-2l0,1l0,-1l1,0l0,-1l0,-1l1,-1l0,-1l0,-1l0,-1l1,1l0,1l0,-1l0,-1l1,0l0,1l0,1l0,-1l1,0l0,-1l0,-1l0,-1l0,-2l1,-1l1,0l1,0l1,0l0,1l0,-1l0,-1l0,-3l1,-1l0,-1l0,-1l0,-1l1,0l0,1l1,0l0,-1l0,1l1,1l0,1l0,-1l1,0l0,-1l1,-1l0,-1l0,1l1,1l1,1l0,-3l0,1l1,0l0,1l0,1l1,0l0,-1l1,0l0,1l0,1l1,1l0,1l1,0l0,-1l0,-1l1,0l1,0l0,1l0,1l1,0l1,1l0,1l0,1l1,1l0,1l0,1l0,1l0,1l1,1l0,1l0,1l0,2l0,1l1,0l0,1l0,1l1,1l0,1l1,1l0,1l1,1l0,1l0,1l0,2l0,2l1,1l0,1l0,1l0,2l0,1l1,1l0,1l0,1l1,4l0,2l0,1l0,2l0,1l1,0l0,1l0,1l0,2l1,1l0,1l0,1l0,1l0,2l1,1l0,1l0,1l0,1l0,1l1,0l0,1l0,1l0,1l1,1l0,1l0,1l0,1l1,0l0,1l0,1l0,1l1,2l0,1l0,1l0,1l0,1l1,1l0,1l0,-1l1,1l0,1l0,2l0,1l0,1l1,0l0,-1l0,-1l1,-1l0,-1l0,-1l0,-2l0,-1l1,-1l0,-1l0,-2l1,0l0,-1l0,-1l0,-2l1,-1l0,-2l0,-3l0,-1l1,-1l0,-1l0,-2l0,-2l1,-2l0,-1l1,0l0,-1l1,-1l0,-1l0,-2l0,-1l0,-1l1,-1l0,1l0,1l0,-2l0,-1l1,-1l0,-1l1,0l0,-1l0,1l0,1l1,0l0,1l0,1l1,-1l0,-1l0,-1l1,-1l0,1l0,-1l1,-1l0,-1l0,-2l1,-2l0,-2l0,-1l1,-1l0,-1l0,1l0,1l0,1l1,1l0,-1l0,-1l1,1l0,1l0,-1l0,-1l1,-1l0,-1l0,-2l1,0l0,-1l0,-1l1,1l0,1l0,-1l0,-1l1,0l0,-2l0,-1l0,1l1,0l0,-1l1,0l0,-1l0,-1l0,-2l1,-1l0,-1l0,-1l1,-1l0,1l0,1l1,0l0,-1l1,-1l0,-1l0,-1l1,0l0,-1l0,1l0,-1l1,-1l0,1l1,0l0,-1l1,-1l0,-1l0,-1l0,-1l1,-2l0,1l0,1l0,-1l0,-2l1,-1l0,-1l0,1l0,1l1,1l0,-1l0,-2l0,-1l1,-1l0,-1l1,-1l0,-2l0,-1l0,1l1,0l0,-1l1,-1l0,-1l0,-1l0,-1l1,-1l0,-1l0,-3l0,-1l1,-1l0,-1l1,-1l1,0l0,-1l1,0l0,-1l1,0l1,0l0,-1l1,1l0,1l1,1l0,-1l1,0l0,1l1,-1l0,1l0,1l0,1l1,0l0,1l0,1l0,1l1,1l0,1l0,1l0,1l1,0l0,1l1,2l0,1l0,1l0,1l0,1l1,0l0,1l0,1l0,2l0,1l1,2l0,1l0,2l0,2l0,2l1,2l0,2l0,1l0,3l0,2l1,2l0,1l0,4l0,2l0,1l1,1l0,1l0,1l0,1l0,1l1,1l0,1l0,1l0,1l0,1l1,1l0,1l0,1l1,1l0,1l0,2l0,1l0,1l1,2l0,1l0,1l0,1l0,2l1,2l0,2l0,1l0,1l0,1l1,1l0,2l0,1l0,1l0,1l1,2l0,1l0,1l0,1l0,1l1,1l0,1l0,2l0,1l0,1l0,1l1,1l0,1l0,1l0,1l0,1l1,0l0,1l0,1l1,0l0,-1l0,1l1,1l0,1l1,0l0,-1l1,0l0,-1l0,-1l1,0l0,1l0,1l0,-2l1,-1l0,1l1,-1l0,-1l0,-1l1,-1l0,-2l0,-3l1,-3l0,-3l0,-3l0,-3l0,-2l1,-2l0,-2l0,-3l1,-2l0,-1l0,-1l0,2l1,0l0,1l1,-1l0,-1l0,-1l0,-1l1,0l0,-1l1,-2l0,-1l1,-1l0,-1l1,-1l0,-2l0,-2l1,0l0,-1l0,-2l1,-1l0,-1l0,1l1,-3l0,-1l0,-2l0,-1l1,-1l0,2l0,-1l1,-1l0,-2l0,-2l0,-1l1,-1l0,1l0,1l0,-1l1,-1l0,-1l0,-2l0,-1l1,-2l0,1l0,1l0,1l0,2l1,1l0,-1l0,-2l1,-1l0,-1l1,0l1,1l0,-1l0,-1l0,1l1,-1l0,-2l0,-1l0,-1l0,-1l1,-1l0,-1l0,-1l0,-1l1,0l0,-2l0,1l1,-1l0,-4l0,-1l0,-1l1,-2l0,-1l0,4l0,-8l1,-1l0,-2l0,-1l0,1l0,-1l1,-2l0,2l0,-1l1,-1l0,-1l0,-3l0,-1l1,0l0,-1l0,-1l1,-1l0,-2l0,1l0,-3l1,0l0,-1l0,-2l0,-4l1,-1l0,-1l0,1l1,-1l0,-1l0,-1l1,0l0,-2l0,-1l0,-1l0,-2l1,-1l0,1l0,-2l0,-1l1,1l0,1l0,1l1,1l0,-1l0,1l1,0l0,-1l1,0l0,-1l0,1l1,0l0,1l0,1l1,0l0,-1l0,1l1,1l1,0l0,1l1,0l0,1l0,-1l0,1l1,1l0,2l0,2l0,3l0,1l1,1l0,2l0,1l0,1l1,1l0,1l0,1l0,2l1,0l0,1l0,1l0,1l1,2l0,1l0,1l0,5l1,1l0,2l0,1l0,2l0,1l0,3l1,1l0,1l0,3l0,2l0,2l1,1l0,1l0,1l0,2l0,2l1,2l0,1l0,2l0,1l0,1l1,1l0,2l0,3l0,2l0,2l1,2l0,2l0,1l0,2l0,1l1,0l0,1l0,3l0,2l0,3l1,3l0,2l0,3l0,4l0,2l1,1l0,2l0,2l0,1l0,2l1,2l0,2l0,2l0,2l0,2l1,1l0,1l0,2l0,3l0,1l1,2l0,1l0,1l0,1l1,2l0,1l0,1l0,1l0,1l1,2l0,1l0,1l0,1l1,1l0,1l0,1l0,1l1,1l0,-1l1,0l0,1l1,1l1,0l0,1l0,1l0,1l1,-1l0,-1l0,-1l0,-1l0,-1l1,-1l0,-2l0,-1l0,-2l0,-2l1,-4l0,-3l0,-2l0,-2l0,-2l1,-3l0,-3l0,-3l0,-1l0,-1l1,0l0,-1l0,-1l0,-1l1,-2l0,-1l0,-1l0,-1l1,-1l0,-1l1,0l0,-1l0,-1l0,-1l1,-2l0,-1l0,-2l0,-1l0,-1l1,-1l0,-1l0,-1l0,-1l0,-1l1,-1l0,-1l0,-3l1,-1l0,-1l0,-2l0,-1l1,-1l0,-1l0,-1l0,-1l0,-1l1,-1l1,-1l0,-1l0,-2l0,-1l1,0l0,-1l1,-2l0,-2l0,-1l0,-1l0,-1l1,-1l0,1l0,1l0,1l0,-1l1,-1l0,-2l0,-1l1,0l0,-2l0,-1l0,-2l1,-1l0,-1l0,-2l0,-1l0,1l1,-1l0,-1l0,-1l1,-2l0,-1l0,-1l1,0l0,1l0,-1l0,-2l1,0l0,-1l0,-4l0,-1l1,-2l0,-1l0,-1l0,-1l1,-1l0,-1l0,-1l0,1l1,1l0,-1l0,-1l0,-1l0,-1l1,-3l0,-1l0,-1l0,-1l0,-1l1,-1l0,1l1,-1l0,-1l0,-2l0,-1l0,-1l1,-2l0,-1l0,-1l0,-1l1,0l0,-4l0,-2l1,0l0,-1l0,-1l0,-1l1,-1l0,-1l0,-1l0,-1l1,-1l0,-1l1,1l0,-1l0,-1l0,-1l1,-2l0,-1l0,2l1,0l0,1l0,-1l1,0l0,-1l0,-1l0,1l1,2l0,1l0,-1l1,0l0,-1l0,-1l1,0l0,1l0,-1l1,0l0,4l0,-1l0,1l1,0l0,1l1,1l1,0l0,1l0,1l1,0l0,2l0,1l1,1l0,1l0,1l0,1l1,0l0,1l0,1l1,4l0,1l0,1l0,1l0,1l1,2l0,1l0,2l0,2l0,1l1,3l0,2l0,3l0,2l0,2l1,3l0,2l0,2l0,2l0,3l1,2l0,2l0,2l0,2l0,2l1,1l0,2l0,3l0,1l0,1l1,1l0,2l0,2l0,2l0,2l1,1l0,1l0,2l0,2l1,1l0,1l0,1l0,1l0,1l1,2l0,2l0,1l0,2l0,2l1,1l0,2l0,2l0,2l1,2l0,1l0,1l0,1l0,1l1,1l0,2l0,1l0,1l0,1l1,1l0,1l0,1l0,2l0,1l1,2l0,2l0,1l0,1l1,1l0,1l0,2l0,1l0,1l1,2l0,1l0,1l0,1l1,1l0,1l0,1l0,1l1,1l0,1l0,1l1,1l0,-1l1,-1l0,-1l0,-1l0,-1l1,1l0,-1l0,-1l0,-1l0,-1l1,-1l0,-2l0,-1l0,-1l0,-2l1,-1l0,-1l0,-1l0,-1l0,-2l1,-1l0,-1l0,-1l0,-1l1,-1l0,-1l0,-1l0,-1l1,0l0,-1l0,-1l0,-2l0,-1l1,-1l0,1l0,1l1,1l0,1l0,-1l0,-1l0,-1l1,0l0,1l0,-1l0,-1l0,-1l1,0l0,-1l0,-2l0,-1l0,-1l1,-2l0,-2l0,1l0,-1l1,-3l0,-1l0,-3l0,-1l0,-1l1,0l0,-1l0,-1l0,-1l1,1l0,-1l0,-1l0,-1l0,-1l1,-1l0,-1l0,-1l0,-1l1,0l0,-1l1,-1l0,-1l0,-2l1,-2l0,-1l1,-2l1,0l0,-1l0,-2l0,-2l1,-1l0,-1l0,-1l0,-1l1,-1l0,-1l0,-1l0,-1l1,-1l0,-1l0,-1l0,-2l0,-1l1,-2l0,-1l0,-1l1,-1l0,-1l0,-1l1,-1l0,1l0,-1l0,-1l1,0l0,-1l0,-1l0,-1l1,-2l0,-1l0,-1l0,-2l0,-2l1,-2l0,-1l1,-1l0,-2l0,-1l0,-1l0,-1l1,-2l0,-1l0,-2l0,-5l0,-1l1,2l0,-1l0,-3l0,-3l1,-2l0,-1l0,-2l0,-2l0,-1l1,-1l0,-2" class="g2_1" />
</g>
<path d="M73,821l1181,0l0,-188L73,633l0,188" class="g2_1" />
<path d="M73,788L73,651" class="g2_1" />
<path d="M73,788l-7,0" class="g2_1" />
<path d="M73,754l-7,0" class="g2_1" />
<path d="M73,720l-7,0" class="g2_1" />
<path d="M73,685l-7,0" class="g2_1" />
<path d="M73,651l-7,0" class="g2_1" />
<text 
transform="matrix(0, -1, 1, 0, 56, 818)"
textLength="57" 
class="s1_1"
>-4e+06</text>

<text 
transform="matrix(0, -1, 1, 0, 56, 744)"
textLength="47" 
class="s1_1"
>0e+00</text>

<text 
transform="matrix(0, -1, 1, 0, 56, 675)"
textLength="47" 
class="s1_1"
>4e+06</text>

<path d="M395,821l695,0" class="g2_1" />
<path d="M395,821l0,7" class="g2_1" />
<path d="M742,821l0,7" class="g2_1" />
<path d="M1090,821l0,7" class="g2_1" />
<text 
x="391" 
y="848" 
textLength="9" 
class="s1_1"
>5</text>

<text 
x="734" 
y="848" 
textLength="18" 
class="s1_1"
>10</text>

<text 
x="1081" 
y="848" 
textLength="18" 
class="s1_1"
>15</text>

<text 
transform="matrix(0, -1, 1, 0, 27, 769)"
textLength="82" 
class="s2_1"
>random</text>

<text 
x="637" 
y="877" 
textLength="54" 
class="s2_1"
>Time</text>

<text 
x="403" 
y="38" 
textLength="522" 
class="s3_1"
>Decomposition of additive time series</text>


<path d="M0,909
L0,0
L1284,0
L1284,909 z "
fill="none"
stroke-width="1.0"
stroke-linecap="butt"
stroke-linejoin="miter"
stroke="#000000" />
</svg>
<title>IFP_1414_decomposed_ts Page1</title>
<!-- Navbar below-->
<path d="M0,909
L0,973
L1284,973
L1284,909 z " 
fill="#FFFFFF" stroke="none" />
<style type="text/css"><![CDATA[
.buttonPDFGen:hover{
	fill:#dfdfdf;
}
.buttonPDFGen:active{
	fill:#f00;
}
]]></style>

<rect x="0" y="909" rx="5" ry="5" fill="#ededed" width="1284" height="14" />

<text x="642.0" y="921" font-size="14" font-family="Arial, Helvetica, sans-serif" text-anchor="middle" fill="#000">
<a xlink:href="index.svg" fill="#00F" class="buttonPDFGen">Start</a> | 
<a xlink:href="index.svg" fill="#00F" class="buttonPDFGen">Prev</a> |
 1 : 1 | 
<a xlink:href="index.svg" fill="#00F" class="buttonPDFGen">Next</a> | 
<a xlink:href="index.svg" fill="#00F" class="buttonPDFGen">End</a> | 
</text>

<a xlink:href="http://www.idrsolutions.com/">
<image x="595.0" y="927" width="94px" height="40px" xlink:href="icons/logo.png" />
</a>
</svg>
